<?xml version="1.0" standalone="no"?>
<!DOCTYPE svg PUBLIC "-//W3C//DTD SVG 20010904//EN"
 "http://www.w3.org/TR/2001/REC-SVG-20010904/DTD/svg10.dtd">
<svg version="1.0" xmlns="http://www.w3.org/2000/svg"
 width="215.000000pt" height="207.000000pt" viewBox="0 0 215.000000 207.000000"
 preserveAspectRatio="xMidYMid meet">

<g transform="translate(0.000000,207.000000) scale(0.100000,-0.100000)"
fill="#000000" stroke="none">
<path d="M0 1938 l0 -133 113 110 c63 61 122 120 132 133 l18 22 -131 0 -132
0 0 -132z"/>
<path d="M763 1083 c-19 -7 -15 -92 6 -138 24 -51 56 -81 110 -100 85 -30 166
-13 229 47 51 50 44 61 -58 97 -49 17 -131 46 -182 65 -51 18 -99 31 -105 29z
m122 -143 c11 -12 31 -20 50 -20 32 0 56 -19 68 -52 6 -16 0 -18 -44 -18 -55
0 -99 18 -141 58 -39 36 -36 52 10 52 26 0 45 -7 57 -20z"/>
</g>
</svg>
