<svg xmlns="http://www.w3.org/2000/svg" width="375" viewBox="0 0 375 375" height="375" version="1.0"><defs><clipPath id="a"><path d="M 91 19 L 301.609375 19 L 301.609375 337.804688 L 91 337.804688 Z M 91 19"/></clipPath><clipPath id="b"><path d="M 91 67.050781 L 301 67.050781 L 301 337.804688 L 91 337.804688 Z M 91 67.050781"/></clipPath><clipPath id="c"><path d="M 120 86 L 295 86 L 295 337.804688 L 120 337.804688 Z M 120 86"/></clipPath><clipPath id="d"><path d="M 146 18.304688 L 247 18.304688 L 247 76 L 146 76 Z M 146 18.304688"/></clipPath><clipPath id="e"><path d="M 90.859375 106 L 197 106 L 197 205 L 90.859375 205 Z M 90.859375 106"/></clipPath><clipPath id="f"><path d="M 223.082031 102 L 301.609375 102 L 301.609375 223.4375 L 223.082031 223.4375 Z M 223.082031 102"/></clipPath></defs><g clip-path="url(#a)"><path fill="#FFF" d="M 153.050781 73.917969 C 155.148438 75.085938 157.652344 75.34375 160.042969 75.078125 C 162.425781 74.8125 164.726562 74.0625 167.011719 73.316406 C 168.355469 72.878906 169.699219 72.4375 171.042969 71.996094 C 171.609375 72.820312 172.140625 73.625 172.613281 74.367188 C 172.613281 74.367188 172.722656 74.664062 172.949219 75.128906 C 172.410156 75.890625 172.070312 76.84375 171.972656 77.765625 C 171.5 82.0625 174.453125 85.925781 177.464844 89.03125 C 179.726562 91.363281 182.152344 93.59375 185.019531 95.128906 C 187.886719 96.667969 191.089844 97.449219 194.265625 98.171875 C 198.277344 99.078125 202.378906 99.917969 206.46875 99.519531 C 208.625 99.3125 210.734375 98.757812 212.820312 98.175781 C 216.199219 97.222656 219.632812 96.132812 222.394531 93.964844 C 224.757812 92.117188 226.496094 89.578125 228.71875 87.558594 C 229.914062 86.464844 231.265625 85.503906 232.152344 84.152344 C 232.941406 82.9375 233.300781 81.5 233.53125 80.074219 C 233.738281 78.824219 233.792969 77.4375 233.464844 76.234375 C 233.570312 75.109375 233.429688 74.382812 233.429688 74.382812 C 234.878906 72.144531 233.773438 68.535156 233.519531 65.878906 C 233.441406 65.105469 233.308594 64.34375 233.152344 63.585938 C 236.253906 62.492188 239.152344 60.875 241.285156 58.40625 C 242.421875 57.089844 243.304688 55.574219 244.019531 53.996094 C 247.808594 45.558594 246.21875 34.972656 240.117188 28.023438 C 236.152344 23.507812 230.542969 20.578125 224.652344 19.402344 C 218.761719 18.230469 212.460938 21.828125 206.558594 20.699219 C 199.285156 19.308594 191.621094 19.78125 184.679688 22.363281 C 177.742188 24.945312 171.570312 29.644531 167.550781 35.859375 C 161.714844 36.234375 156.628906 39.964844 152.535156 44.140625 C 151.429688 45.261719 150.363281 46.4375 149.546875 47.785156 C 147.65625 50.925781 147.28125 54.726562 147.167969 58.386719 C 147.078125 61.300781 147.128906 64.269531 147.960938 67.066406 C 148.796875 69.863281 150.5 72.503906 153.050781 73.917969 Z M 140.203125 191.996094 C 141.429688 189.046875 142.691406 185.890625 143.988281 182.445312 C 141.347656 186.445312 139.085938 190.027344 137.183594 193.171875 C 138.097656 192.621094 139.132812 192.222656 140.203125 191.996094 Z M 301.25 203.96875 C 300.816406 213.09375 296.707031 217.78125 289.035156 224.332031 C 285.492188 220.019531 283.09375 216.710938 279.804688 212.132812 C 289.753906 243.871094 293.324219 272.675781 294.378906 294.714844 C 294.378906 294.714844 280.828125 334.175781 261.808594 331.640625 C 255.515625 331.699219 234.1875 361.355469 182.515625 355.285156 C 147.175781 351.136719 129.847656 304.285156 122.460938 285.070312 C 119.046875 276.195312 117.992188 266.363281 118.714844 256.199219 C 120.578125 230 127.503906 220.628906 137.074219 199.242188 C 136.859375 198.871094 136.625 198.515625 136.421875 198.140625 C 136.011719 197.382812 135.835938 196.351562 135.863281 195.382812 C 132.496094 201.070312 130.453125 205.0625 129.566406 207.105469 C 108.292969 194.535156 91.554688 204.515625 91.363281 204.703125 C 91.429688 203.878906 91.519531 203.050781 91.660156 202.195312 C 95.207031 180.582031 122.304688 143.964844 135.691406 132.027344 C 149.078125 120.085938 155.691406 120.734375 165.851562 118.152344 C 174.410156 115.980469 182.808594 111.308594 187.609375 107.222656 C 187.664062 107.257812 187.855469 107.398438 187.914062 107.433594 C 190.175781 108.976562 221.113281 105.007812 224.171875 102.851562 C 228.820312 107.046875 237.371094 112.617188 246.363281 115.050781 C 259.722656 118.667969 271.316406 123.144531 283.222656 141.230469 C 295.121094 159.3125 302.261719 182.886719 301.25 203.96875 Z M 190.402344 556.34375 L 190.667969 546.726562 C 188.441406 546.207031 184.714844 534.777344 182.441406 534.605469 C 179.273438 534.367188 176.101562 534.292969 172.933594 534.308594 C 173.113281 534.378906 173.292969 534.441406 173.472656 534.511719 C 159.738281 528.894531 159.964844 524.886719 148.886719 530.117188 C 148.890625 530.113281 136.863281 530.9375 136.863281 530.933594 C 133.800781 531.074219 130.726562 531.1875 127.648438 531.234375 C 126.375 531.25 122.730469 548.246094 120.84375 548.484375 C 120.386719 555.527344 120.117188 559.585938 120.117188 559.585938 C 120.296875 559.292969 120.296875 559.292969 120.117188 559.585938 C 120.117188 559.585938 116.792969 565.757812 117.273438 569.820312 C 117.386719 570.765625 117.28125 577.335938 117.890625 577.953125 C 121.136719 581.195312 149.328125 579.039062 157.976562 578.679688 C 166.625 578.316406 189.292969 575.980469 190.953125 571.902344 C 192.070312 569.140625 191.636719 563.363281 191.417969 561.082031 C 191.152344 558.300781 190.402344 556.34375 190.402344 556.34375 Z M 299.886719 568.183594 C 300.019531 569.785156 299.167969 574.425781 298.21875 575.375 C 294.972656 578.617188 268.949219 579.03125 260.296875 578.671875 C 251.648438 578.3125 231.601562 576.695312 228.25 573.847656 C 227.171875 572.925781 225 567.011719 224.632812 565.945312 C 223.085938 561.460938 226.742188 556.34375 226.742188 556.34375 L 226.421875 544.75 C 228.476562 544.957031 230.316406 528.839844 232.28125 528.902344 C 237.28125 529.054688 242.285156 529.121094 247.292969 529.1875 C 255.5625 527.449219 264.910156 527.105469 272.96875 528.738281 C 274.332031 529.019531 275.617188 529.34375 276.847656 529.703125 C 276.839844 529.703125 276.839844 529.703125 276.839844 529.703125 C 277.757812 529.71875 278.679688 529.734375 279.59375 529.75 C 285.042969 529.847656 293.160156 541.949219 296.257812 547.742188 C 296.742188 555.242188 297.03125 559.585938 297.03125 559.585938 C 297.03125 559.585938 299.558594 564.289062 299.886719 568.183594"/></g><g clip-path="url(#b)"><path fill="#E9BF88" d="M 191.335938 560.347656 C 191.648438 562.738281 191.648438 565.890625 190.402344 568.960938 C 188.75 573.039062 165.171875 571.84375 156.523438 572.207031 C 147.871094 572.566406 121.558594 575.449219 118.316406 572.207031 C 117.367188 571.257812 117.136719 569.785156 117.273438 568.183594 C 116.195312 571.804688 116.203125 575.316406 116.472656 577.882812 C 116.757812 580.546875 118.855469 582.636719 121.511719 582.960938 C 134.097656 584.5 166.414062 582.054688 176.179688 581.15625 C 182.410156 580.578125 185.789062 579.492188 187.570312 578.636719 C 188.714844 578.082031 189.625 577.152344 190.238281 576.039062 C 192.980469 571.015625 192.199219 563.625 191.335938 560.347656 Z M 299.871094 568.183594 C 299.898438 568.488281 299.914062 568.792969 299.910156 569.089844 C 299.894531 570.335938 299.597656 571.4375 298.832031 572.207031 C 295.589844 575.449219 269.273438 572.566406 260.625 572.207031 C 251.972656 571.84375 230.09375 571.8125 226.742188 568.960938 C 225.027344 567.503906 224.363281 565.757812 224.261719 564.03125 C 224.15625 567.574219 224.878906 572.320312 226.90625 576.039062 C 227.519531 577.152344 228.429688 578.082031 229.574219 578.636719 C 231.355469 579.492188 234.734375 580.578125 240.96875 581.15625 C 250.730469 582.054688 280.972656 584.726562 293.5625 583.183594 C 296.222656 582.863281 298.421875 581.273438 299.464844 578.800781 C 300.46875 576.425781 300.953125 571.804688 299.871094 568.183594 Z M 184.449219 263.402344 C 184.449219 263.402344 189.160156 261.832031 189.527344 257.386719 C 189.527344 257.386719 193.238281 256.273438 194.226562 250.832031 C 194.226562 250.832031 196.632812 248.824219 196.296875 242.789062 C 196.296875 242.789062 195.566406 243.488281 193.445312 244.828125 C 189.855469 247.085938 187.960938 247.644531 185.839844 247.765625 C 189.980469 246.101562 192.964844 244.585938 193.414062 242.929688 C 193.671875 241.953125 193 240.570312 191.320312 240.835938 C 189.457031 241.125 185.863281 241.992188 179.0625 241.769531 C 175.390625 241.648438 157.867188 231.648438 145.371094 220.460938 C 140.683594 216.265625 135.039062 209.167969 129.914062 203.160156 C 125.4375 197.914062 116.199219 195.375 109.371094 196.578125 C 97.421875 198.6875 91.421875 204.410156 91.269531 204.5625 C 91.257812 205.507812 91.253906 206.15625 91.25 206.597656 C 91.246094 206.808594 91.246094 207.019531 91.25 207.230469 C 91.25 207.371094 91.25 207.398438 91.253906 207.347656 C 91.941406 230.675781 147.226562 264.730469 156.234375 267.226562 C 161.492188 268.683594 175.957031 270.667969 178.84375 269.8125 C 182.339844 268.769531 184.175781 268.023438 184.449219 263.402344 Z M 231.6875 75.894531 C 228.476562 75.894531 225.300781 75.84375 222.34375 76.097656 C 219.628906 80.371094 217.152344 82.613281 214.023438 78.328125 C 211.054688 80 208.773438 82.824219 207.5625 87.566406 C 207.5625 87.566406 212.042969 88.507812 217.148438 88.0625 C 218.683594 82.035156 221.796875 82.867188 225.097656 85.917969 C 228.425781 84.136719 231.070312 81.070312 231.6875 75.894531 Z M 198.226562 87.566406 C 197.023438 82.824219 194.738281 80 191.769531 78.328125 C 189.339844 81.355469 184.582031 83.160156 183.449219 76.097656 C 180.496094 75.84375 177.316406 75.894531 174.105469 75.894531 C 174.714844 81.003906 177.296875 84.058594 180.5625 85.84375 C 183.503906 84.195312 185.789062 84.144531 188.648438 88.0625 C 193.753906 88.507812 198.226562 87.566406 198.226562 87.566406 Z M 233.304688 88.234375 C 231.734375 93.84375 228.375 98.789062 223.8125 102.527344 C 224.214844 103.671875 210.433594 111.148438 204.394531 112.125 C 199.195312 112.96875 189.085938 108.785156 188.441406 106.5 C 180.4375 102.609375 174.496094 95.625 172.496094 87.273438 C 166.859375 88.113281 161.144531 85.648438 161.535156 81.03125 C 162.019531 75.332031 167.0625 73.898438 172.613281 74.367188 C 172.613281 74.367188 173.292969 71.378906 182.640625 69.429688 C 183.503906 73.089844 190.578125 74.382812 200.679688 67.816406 C 201.4375 67.804688 202.21875 67.800781 203.019531 67.800781 C 231.6875 67.800781 233.429688 74.382812 233.429688 74.382812 C 237.835938 72.617188 243.683594 73.03125 245.761719 77.320312 C 247.773438 81.464844 243.828125 90.921875 233.304688 88.234375 Z M 290.65625 222.867188 C 280.902344 231.074219 264.964844 232.675781 251.648438 229.246094 C 230.496094 223.792969 192.535156 210.011719 183.46875 201.179688 C 182.664062 200.214844 181.4375 196.902344 184.359375 195.296875 C 184.359375 195.296875 181.34375 190.773438 185.867188 189.734375 C 185.867188 189.734375 183.886719 185.683594 188.503906 184.085938 C 188.503906 184.085938 187.972656 180.746094 191.6875 178.578125 C 191.828125 178.539062 191.976562 178.503906 192.128906 178.476562 C 194.164062 178.246094 201.570312 179.785156 208.019531 182.242188 L 211.621094 178.820312 C 211.621094 178.820312 215.382812 180.773438 218.316406 185.175781 C 221.25 189.574219 238.296875 187.644531 262.242188 189.84375 C 276.917969 191.753906 285.464844 194.003906 291.039062 204.789062 C 293.363281 209.289062 292.9375 216.179688 290.65625 222.867188"/></g><g clip-path="url(#c)"><path fill="#D95739" d="M 187.914062 107.433594 C 190.175781 108.976562 192.695312 110.144531 195.332031 110.878906 C 197.722656 111.542969 200.359375 111.925781 202.144531 113.660156 C 203.253906 114.738281 203.871094 116.207031 204.464844 117.632812 C 205.71875 117.734375 206.917969 117.53125 208.15625 117.34375 C 207.53125 115.550781 208.445312 113.101562 209.773438 111.746094 C 211.101562 110.386719 212.863281 109.5625 214.558594 108.695312 C 217.890625 106.996094 221.113281 105.007812 224.171875 102.851562 C 224.175781 102.851562 224.175781 102.851562 224.183594 102.851562 C 224.054688 102.738281 223.925781 102.625 223.804688 102.515625 C 223.78125 102.535156 223.753906 102.550781 223.726562 102.574219 C 228.285156 98.859375 231.667969 93.953125 233.261719 88.371094 C 232.746094 88.289062 232.226562 88.234375 231.6875 88.234375 C 226.246094 88.234375 221.835938 92.644531 221.835938 98.085938 C 221.835938 99.878906 222.324219 101.554688 223.15625 103 C 217.714844 107.230469 210.703125 109.8125 203.019531 109.8125 C 197.75 109.8125 192.800781 108.597656 188.449219 106.476562 C 188.183594 106.722656 187.902344 106.96875 187.605469 107.222656 C 187.605469 107.222656 187.605469 107.222656 187.609375 107.222656 C 187.664062 107.257812 187.855469 107.398438 187.914062 107.433594 Z M 183.789062 103.71875 C 185.917969 101.914062 187.273438 99.222656 187.273438 96.207031 C 187.273438 90.769531 182.863281 86.359375 177.417969 86.359375 C 175.664062 86.359375 174.015625 86.820312 172.585938 87.628906 C 174.238281 94.109375 178.269531 99.746094 183.789062 103.71875 Z M 293.601562 362.179688 C 294.140625 387.316406 294.175781 407.699219 293.75 432.835938 C 292.265625 433.984375 290.792969 435.09375 289.324219 436.160156 C 268.210938 473.535156 247.558594 483.632812 226.449219 459.652344 C 223.671875 459.90625 220.816406 460.101562 217.886719 460.246094 C 209.3125 460.65625 200.121094 460.066406 190.6875 458.8125 C 171.839844 482.253906 146.828125 473.765625 127.355469 444.128906 C 124.890625 443.414062 122.472656 442.714844 120.117188 442.027344 C 126.414062 396.585938 123.09375 352.496094 127.929688 307.339844 C 124.410156 302.453125 122.035156 297.679688 122.070312 295.496094 C 121.898438 292.015625 122.039062 288.519531 122.460938 285.054688 C 129.84375 304.277344 148.265625 319.0625 183.613281 323.214844 C 235.285156 329.28125 254.601562 304.953125 260.894531 304.902344 C 278.886719 307.296875 292.785156 296.050781 294.246094 294.824219 C 294.226562 298.675781 294.457031 303.410156 294.804688 307.078125 C 293.269531 309.667969 291.277344 312.390625 288.972656 315 C 291.765625 331.195312 293.351562 350.304688 293.601562 362.179688"/></g><path fill="#151B14" d="M 149.828125 314.421875 L 150.179688 313.6875 C 127.9375 303.066406 123.601562 286.953125 123.539062 286.726562 C 119.730469 277.886719 118.210938 267.578125 119.027344 256.089844 C 119.320312 251.960938 119.742188 248.246094 120.285156 244.832031 L 119.550781 244.253906 C 118.96875 247.808594 118.519531 251.691406 118.210938 256.03125 C 117.386719 267.652344 118.925781 278.089844 122.769531 286.992188 C 122.808594 287.160156 127.222656 303.628906 149.828125 314.421875"/><path fill="#151B14" d="M 218.304688 163.652344 L 202.21875 180.394531 C 202.21875 180.394531 206.410156 181.441406 208.046875 182.289062 L 208.035156 182.304688 C 208.84375 182.675781 209.699219 182.925781 210.578125 183.046875 L 210.695312 182.238281 C 210.027344 182.144531 209.382812 181.957031 208.757812 181.703125 C 209.460938 181.082031 210.570312 180.054688 211.453125 179.097656 C 212.855469 177.585938 222.480469 168.464844 222.480469 168.464844 C 222.480469 168.464844 223.113281 162.386719 218.304688 163.652344"/><path fill="#151B14" d="M 149.949219 264.359375 C 150.886719 279.359375 153.734375 293.175781 158.492188 305.582031 L 159.253906 305.292969 C 154.578125 293.097656 151.757812 279.53125 150.796875 264.804688 L 149.949219 264.359375"/><path fill="#151B14" d="M 168.59375 202.933594 C 168.921875 203.488281 169.195312 204.109375 169.707031 204.5 C 170.117188 204.816406 170.632812 204.945312 171.121094 205.09375 C 172.339844 205.457031 173.503906 205.96875 174.601562 206.597656 L 168.957031 211.78125 C 168.957031 211.78125 171.46875 211.726562 174.777344 214.691406 L 179.355469 210.632812 C 180.28125 211.753906 181.074219 212.976562 181.671875 214.300781 C 183.328125 213.09375 185.746094 213.957031 187.234375 215.371094 C 188.714844 216.78125 189.707031 218.667969 191.269531 219.996094 C 193.222656 221.65625 195.832031 222.265625 198.109375 223.445312 C 200.382812 224.632812 201.945312 226.917969 202.066406 229.484375 C 202.191406 232.082031 197.332031 232.398438 194.835938 232.425781 C 187.671875 232.492188 180.832031 229.675781 174.28125 226.785156 C 166.90625 223.53125 159.558594 220.101562 152.90625 215.542969 C 146.253906 210.980469 140.28125 205.222656 136.421875 198.140625 C 135.792969 196.984375 135.667969 195.214844 136.058594 193.960938 C 139.03125 191.433594 144.023438 190.964844 147.277344 193.117188 C 149.339844 194.480469 150.867188 196.683594 153.195312 197.507812 C 154.402344 197.933594 155.707031 197.9375 156.984375 197.984375 C 161.382812 198.125 166.363281 199.140625 168.59375 202.933594 Z M 141.988281 185.964844 C 141.269531 187.796875 140.792969 189.058594 140.621094 189.523438 C 140.574219 189.644531 140.519531 189.773438 140.46875 189.898438 C 140.105469 189.925781 139.753906 189.957031 139.410156 189.992188 C 140.183594 188.773438 141.035156 187.441406 141.988281 185.964844 Z M 197.476562 117.746094 L 197.242188 117.753906 C 194.199219 117.867188 191.046875 117.984375 188.324219 119.460938 C 180.378906 123.789062 161.644531 172.367188 158.519531 186.421875 C 158.023438 188.664062 157.519531 190.980469 157.019531 193.324219 C 156.433594 193.078125 155.839844 192.828125 155.25 192.59375 C 149.625 190.34375 144.996094 189.726562 141.378906 189.847656 C 142.261719 187.675781 143.164062 185.382812 144.082031 182.953125 C 147.851562 173.757812 155.035156 157.726562 162.722656 148.242188 L 162.089844 147.722656 C 159.042969 151.488281 156.074219 156.273438 153.359375 161.25 L 153.359375 160.875 C 152.8125 160.875 152.269531 160.40625 151.757812 159.46875 C 150.886719 157.898438 150.269531 156.203125 149.925781 154.441406 L 149.121094 154.597656 C 149.484375 156.441406 150.128906 158.21875 151.042969 159.867188 C 151.652344 160.976562 152.359375 161.558594 153.140625 161.652344 C 149.207031 168.929688 145.835938 176.570312 143.574219 182.042969 L 143.550781 182.082031 C 141.460938 185.234375 139.761719 187.867188 138.324219 190.148438 C 133.960938 190.871094 131.753906 192.59375 131.753906 192.59375 C 129.914062 195.628906 128.722656 198.558594 127.949219 201.265625 C 128.671875 201.855469 129.335938 202.484375 129.914062 203.160156 C 135.039062 209.167969 140.683594 216.265625 145.371094 220.460938 C 157.867188 231.648438 175.390625 241.648438 179.0625 241.769531 C 185.863281 241.992188 189.457031 241.125 191.320312 240.835938 C 193 240.570312 193.671875 241.953125 193.414062 242.929688 C 193.089844 244.128906 191.421875 245.253906 188.972656 246.414062 C 186.207031 247.585938 184.226562 247.429688 183.371094 247.023438 C 181.878906 246.320312 179.316406 246.246094 177.949219 246.371094 L 178.027344 247.1875 C 179.5625 247.046875 181.835938 247.199219 183.023438 247.765625 C 183.484375 247.984375 184.175781 248.144531 185.058594 248.144531 C 186.765625 248.144531 189.214844 247.527344 192.160156 245.605469 C 192.5625 245.371094 192.992188 245.117188 193.445312 244.828125 C 195.070312 243.804688 195.875 243.15625 196.160156 242.90625 C 200.800781 238.554688 202.777344 234.132812 203.082031 233.390625 C 204.246094 230.542969 205.492188 226.496094 197.078125 217.945312 C 193.722656 214.539062 188.863281 210.8125 183.257812 207.167969 L 186.925781 203.90625 C 185.53125 202.960938 184.359375 202.046875 183.46875 201.179688 C 183.160156 200.808594 182.785156 200.082031 182.609375 199.242188 L 177.71875 203.730469 C 171.363281 199.976562 164.429688 196.453125 157.789062 193.640625 C 158.296875 191.246094 158.808594 188.886719 159.316406 186.597656 C 162.828125 170.820312 181.320312 124.199219 188.714844 120.179688 C 191.269531 118.792969 194.320312 118.679688 197.273438 118.574219 L 197.507812 118.5625 C 197.75 118.550781 222.542969 117.199219 226.179688 114.019531 L 225.640625 113.402344 C 222.746094 115.941406 202.414062 117.5625 197.476562 117.746094"/><path fill="#151B14" d="M 183.988281 252.203125 C 183.914062 253.601562 183.777344 254.925781 182.96875 255.792969 C 182.890625 255.878906 182.804688 255.957031 182.71875 256.039062 C 182.539062 256.210938 182.355469 256.386719 182.199219 256.609375 C 181.847656 257.117188 181.777344 257.703125 181.707031 258.261719 C 181.667969 258.59375 181.632812 258.90625 181.539062 259.1875 C 181.3125 259.878906 180.75 260.421875 180.160156 260.992188 C 179.511719 261.617188 178.84375 262.265625 178.558594 263.167969 C 178.488281 263.402344 178.449219 263.640625 178.40625 263.882812 C 178.371094 264.09375 178.339844 264.304688 178.273438 264.511719 C 178.109375 265 177.757812 265.4375 177.414062 265.855469 C 176.757812 266.652344 175.808594 267.527344 174.988281 267.167969 L 174.660156 267.921875 C 174.863281 268.011719 175.105469 268.074219 175.378906 268.074219 C 176.066406 268.074219 176.96875 267.6875 178.042969 266.371094 C 178.417969 265.917969 178.84375 265.398438 179.050781 264.761719 C 179.128906 264.511719 179.171875 264.257812 179.210938 264.011719 C 179.246094 263.808594 179.277344 263.609375 179.339844 263.410156 C 179.5625 262.707031 180.128906 262.160156 180.726562 261.582031 C 181.367188 260.964844 182.027344 260.328125 182.316406 259.445312 C 182.429688 259.085938 182.476562 258.714844 182.519531 258.363281 C 182.578125 257.875 182.632812 257.417969 182.871094 257.066406 C 182.976562 256.917969 183.125 256.78125 183.28125 256.632812 C 183.378906 256.542969 183.472656 256.449219 183.566406 256.347656 C 184.558594 255.285156 184.722656 253.800781 184.808594 252.25 L 183.988281 252.203125"/><path fill="#151B14" d="M 183.019531 264.199219 C 183.527344 264.0625 184.042969 263.925781 184.558594 263.796875 L 184.363281 263.007812 C 183.839844 263.132812 183.316406 263.269531 182.800781 263.417969 L 183.019531 264.199219"/><path fill="#151B14" d="M 156.335938 275.300781 C 156.59375 274.917969 156.972656 274.726562 157.464844 274.726562 C 157.648438 274.726562 157.851562 274.753906 158.070312 274.804688 C 159.179688 275.078125 160.136719 276.375 160.292969 277.820312 C 160.355469 278.351562 160.367188 279.652344 159.175781 280.246094 C 158.339844 280.664062 157.292969 280.183594 156.765625 279.476562 C 156 278.464844 155.65625 276.335938 156.335938 275.300781 Z M 158.519531 281.210938 C 158.867188 281.210938 159.210938 281.140625 159.539062 280.976562 C 160.683594 280.40625 161.269531 279.195312 161.105469 277.730469 C 160.9375 276.1875 159.902344 274.417969 158.265625 274.011719 C 156.726562 273.632812 155.972656 274.375 155.65625 274.851562 C 154.746094 276.230469 155.148438 278.691406 156.113281 279.96875 C 156.644531 280.679688 157.582031 281.210938 158.519531 281.210938"/><path fill="#151B14" d="M 163.0625 300.9375 C 163.332031 300.707031 163.664062 300.589844 164.027344 300.589844 C 164.496094 300.589844 165.035156 300.78125 165.589844 301.171875 C 166.863281 302.066406 168.117188 304.171875 167.761719 305.359375 C 167.574219 305.972656 166.9375 306.300781 165.859375 306.332031 C 164.476562 306.371094 163.367188 305.328125 162.832031 304.277344 C 162.105469 302.847656 162.394531 301.515625 163.0625 300.9375 Z M 165.792969 307.152344 C 165.824219 307.152344 165.851562 307.152344 165.882812 307.152344 C 167.714844 307.097656 168.339844 306.277344 168.542969 305.59375 C 169.050781 303.902344 167.410156 301.453125 166.054688 300.503906 C 164.761719 299.597656 163.441406 299.527344 162.523438 300.324219 C 161.457031 301.25 161.28125 303.027344 162.105469 304.644531 C 162.867188 306.152344 164.339844 307.152344 165.792969 307.152344"/><path fill="#151B14" d="M 205.234375 333.699219 C 191.78125 333.46875 178.332031 331.753906 165.253906 328.59375 C 159.320312 327.167969 152.425781 325.210938 146.273438 321.601562 C 139.660156 317.714844 134.222656 312.109375 128.964844 306.691406 L 128.378906 307.261719 C 133.675781 312.722656 139.148438 318.363281 145.859375 322.304688 C 152.101562 325.972656 159.066406 327.945312 165.058594 329.390625 C 178.195312 332.5625 191.710938 334.285156 205.21875 334.515625 L 205.234375 333.699219"/><path fill="#151B14" d="M 218.976562 322.105469 L 219.160156 322.898438 L 219.839844 322.742188 C 228.328125 320.804688 241.152344 317.882812 256.613281 306.953125 C 257.683594 306.339844 258.753906 305.746094 259.832031 305.171875 C 260.382812 305.253906 262.457031 305.558594 265.5 305.558594 C 272.4375 305.558594 284.375 304.003906 294.554688 294.875 L 294.699219 294.746094 L 294.691406 294.550781 C 293.589844 271.535156 290.132812 248.84375 284.394531 226.878906 C 284.152344 226.996094 283.898438 227.097656 283.648438 227.210938 C 289.332031 249.019531 292.761719 271.550781 293.867188 294.398438 C 281.078125 305.75 265.539062 305.003906 261.085938 304.511719 C 268.863281 300.476562 276.410156 297.597656 279.855469 296.703125 L 279.652344 295.914062 C 275.5 296.988281 265.472656 300.902344 256.171875 306.265625 C 240.8125 317.125 228.082031 320.023438 219.660156 321.945312 L 218.976562 322.105469"/><path fill="#151B14" d="M 258.554688 325.402344 C 269.023438 323.597656 279.339844 319.703125 288.386719 314.144531 L 287.960938 313.449219 C 278.996094 318.953125 268.78125 322.804688 258.414062 324.597656 L 258.554688 325.402344"/><path fill="#151B14" d="M 194.546875 251.085938 L 193.898438 250.585938 C 192.695312 252.167969 188.726562 253.507812 188.6875 253.519531 L 188.945312 254.296875 C 189.117188 254.238281 193.191406 252.863281 194.546875 251.085938"/><path fill="#151B14" d="M 187.507812 258.453125 C 188.179688 258.230469 188.847656 258.003906 189.507812 257.757812 L 189.230469 256.992188 C 188.574219 257.230469 187.914062 257.457031 187.253906 257.675781 L 187.507812 258.453125"/><path fill="#151B14" d="M 165.503906 76.71875 L 165.371094 77.523438 C 167.929688 77.949219 170.203125 79.777344 171.164062 82.1875 L 171.921875 81.886719 C 170.859375 79.214844 168.339844 77.183594 165.503906 76.71875"/><path fill="#151B14" d="M 235.257812 82.523438 L 235.992188 82.867188 C 236.753906 81.242188 237.605469 80.042969 238.609375 79.207031 C 239.832031 78.183594 241.308594 77.710938 242.648438 77.914062 L 242.765625 77.105469 C 241.199219 76.871094 239.492188 77.40625 238.085938 78.578125 C 236.992188 79.492188 236.066406 80.785156 235.257812 82.523438"/><path fill="#151B14" d="M 197.003906 95.894531 L 196.191406 95.988281 C 196.316406 97.03125 197.003906 98.03125 198.042969 98.664062 C 198.828125 99.144531 199.785156 99.4375 201.0625 99.578125 C 201.523438 99.625 201.976562 99.652344 202.414062 99.652344 C 203.414062 99.652344 204.335938 99.519531 205.15625 99.25 C 206.609375 98.773438 207.78125 97.871094 208.460938 96.703125 L 207.757812 96.292969 C 207.179688 97.28125 206.164062 98.058594 204.902344 98.472656 C 203.835938 98.820312 202.570312 98.921875 201.144531 98.765625 C 199.996094 98.636719 199.148438 98.386719 198.46875 97.96875 C 197.648438 97.464844 197.101562 96.6875 197.003906 95.894531"/><path fill="#151B14" d="M 199.589844 89.894531 C 199.488281 90.480469 199.753906 91.113281 200.285156 91.546875 C 200.738281 91.914062 201.285156 92.085938 201.761719 92.207031 L 201.960938 91.410156 C 201.570312 91.316406 201.128906 91.183594 200.800781 90.914062 C 200.503906 90.667969 200.34375 90.324219 200.390625 90.027344 C 200.4375 89.757812 200.644531 89.492188 200.859375 89.207031 C 201.199219 88.757812 201.589844 88.25 201.421875 87.589844 L 200.628906 87.792969 C 200.699219 88.050781 200.511719 88.3125 200.207031 88.710938 C 199.957031 89.046875 199.664062 89.425781 199.589844 89.894531"/><path fill="#151B14" d="M 193.007812 82.035156 C 193.007812 80.65625 192.546875 79.382812 191.769531 78.332031 C 189.371094 76.980469 186.53125 76.371094 183.449219 76.101562 C 181.027344 77.09375 179.328125 79.378906 179.328125 82.035156 C 179.328125 83.492188 179.84375 84.832031 180.703125 85.914062 C 183.160156 87.222656 185.988281 87.832031 188.648438 88.058594 C 191.199219 87.121094 193.007812 84.78125 193.007812 82.035156"/><path fill="#151B14" d="M 225.09375 85.914062 C 225.953125 84.832031 226.46875 83.492188 226.46875 82.035156 C 226.46875 79.378906 224.769531 77.09375 222.34375 76.101562 C 219.265625 76.371094 216.425781 76.980469 214.027344 78.332031 C 213.25 79.382812 212.789062 80.65625 212.789062 82.035156 C 212.789062 84.78125 214.597656 87.121094 217.148438 88.058594 C 219.808594 87.832031 222.636719 87.222656 225.09375 85.914062"/><path fill="#151B14" d="M 210.109375 49.265625 C 209.820312 47.65625 209.75 46.011719 209.90625 44.386719 L 209.089844 44.308594 C 208.933594 46.011719 209.007812 47.726562 209.308594 49.40625 L 210.109375 49.265625"/><g clip-path="url(#d)"><path fill="#151B14" d="M 147.574219 58.402344 C 147.6875 54.8125 148.046875 51.070312 149.898438 47.996094 C 150.714844 46.648438 151.785156 45.480469 152.824219 44.425781 C 157.585938 39.582031 162.117188 36.957031 166.648438 36.386719 C 163.59375 41.207031 163.371094 47.363281 163.191406 52.363281 L 164.007812 52.390625 C 164.1875 47.292969 164.421875 40.964844 167.714844 36.261719 L 167.785156 36.257812 L 167.894531 36.085938 C 171.753906 30.113281 177.769531 25.371094 184.824219 22.746094 C 191.539062 20.242188 199.027344 19.675781 206.480469 21.101562 C 206.6875 21.140625 206.894531 21.164062 207.105469 21.191406 C 203.292969 22.886719 200.292969 26.503906 199.5 30.597656 L 200.296875 30.753906 C 201.160156 26.308594 204.800781 22.457031 209.1875 21.320312 C 211.335938 21.296875 213.519531 20.871094 215.644531 20.445312 C 218.621094 19.847656 221.699219 19.230469 224.574219 19.804688 C 230.660156 21.019531 236.070312 24.035156 239.808594 28.292969 C 245.777344 35.082031 247.351562 45.585938 243.648438 53.828125 C 242.886719 55.511719 241.988281 56.964844 240.980469 58.136719 C 239.167969 60.230469 236.695312 61.832031 233.4375 63.035156 C 233.046875 61.320312 232.507812 59.644531 231.96875 58.015625 C 231.90625 57.832031 231.824219 57.675781 231.746094 57.519531 C 234.21875 55.511719 235.300781 51.996094 234.371094 48.945312 L 233.589844 49.183594 C 234.414062 51.886719 233.46875 54.996094 231.308594 56.8125 C 230.277344 55.484375 228.519531 55.023438 226.800781 54.585938 C 226.394531 54.484375 225.992188 54.378906 225.59375 54.265625 C 218.820312 52.324219 211.59375 52.035156 204.683594 53.4375 C 202.691406 53.839844 200.703125 54.390625 198.78125 54.917969 C 196.671875 55.503906 194.492188 56.105469 192.3125 56.515625 C 188.277344 57.265625 182.484375 58.058594 178.722656 56.257812 L 178.34375 56.074219 L 178.339844 56.085938 C 176.925781 55.441406 174.25 53.679688 172.832031 51.757812 L 172.179688 52.242188 C 173.730469 54.359375 176.535156 56.148438 177.996094 56.828125 C 175.769531 61.414062 170.96875 64.695312 166.394531 64.695312 C 166.378906 64.695312 166.367188 64.695312 166.351562 64.695312 C 161.714844 64.535156 158.394531 63.398438 156.207031 61.21875 L 155.628906 61.796875 C 157.9375 64.097656 161.371094 65.304688 166.113281 65.496094 C 166.996094 66.886719 168.085938 68.453125 169.144531 69.972656 C 169.5625 70.574219 169.984375 71.179688 170.398438 71.78125 L 166.882812 72.925781 C 164.65625 73.660156 162.351562 74.410156 159.996094 74.675781 C 158.1875 74.875 155.546875 74.839844 153.246094 73.566406 C 150.988281 72.308594 149.25 69.957031 148.351562 66.949219 C 147.527344 64.160156 147.488281 61.195312 147.574219 58.402344 Z M 183.996094 69.644531 C 185.324219 70.640625 187.34375 70.78125 189.40625 70.011719 C 190.683594 69.539062 191.875 68.792969 193.03125 68.074219 C 193.570312 67.742188 194.101562 67.410156 194.648438 67.105469 C 196.9375 65.796875 198.910156 65.304688 200.679688 65.59375 L 200.550781 66.394531 C 198.976562 66.144531 197.175781 66.605469 195.050781 67.816406 C 194.511719 68.121094 193.992188 68.445312 193.464844 68.773438 C 192.277344 69.511719 191.046875 70.277344 189.695312 70.78125 C 188.71875 71.140625 187.75 71.320312 186.835938 71.320312 C 185.566406 71.320312 184.40625 70.972656 183.503906 70.292969 Z M 194.347656 63.511719 C 195.738281 63.195312 197.164062 63.171875 198.542969 63.152344 L 198.550781 63.964844 C 197.214844 63.988281 195.832031 64.007812 194.53125 64.308594 C 193.539062 64.535156 192.15625 65.042969 191.199219 66.148438 L 190.578125 65.613281 C 191.679688 64.339844 193.238281 63.769531 194.347656 63.511719 Z M 152.847656 74.277344 C 154.402344 75.136719 156.285156 75.582031 158.359375 75.582031 C 158.917969 75.582031 159.5 75.550781 160.085938 75.484375 C 162.527344 75.214844 164.871094 74.445312 167.140625 73.703125 L 170.878906 72.480469 C 170.96875 72.613281 171.054688 72.742188 171.144531 72.875 C 171.296875 73.101562 171.453125 73.335938 171.589844 73.542969 C 171.828125 73.902344 172.050781 74.253906 172.269531 74.589844 L 172.613281 74.367188 C 173.292969 74.628906 175.570312 74.832031 176.71875 74.335938 C 177.871094 73.839844 178.910156 73.105469 179.910156 72.347656 C 180.710938 71.738281 181.097656 70.542969 181.710938 69.734375 C 182.40625 71.15625 183.5 72.597656 184.796875 73.117188 C 186.496094 73.789062 188.363281 73.898438 190.1875 73.824219 C 192.082031 73.753906 194.023438 73.484375 195.671875 72.550781 C 196.550781 72.050781 197.320312 71.382812 198.125 70.769531 C 199.375 69.828125 200.738281 69.03125 202.171875 68.394531 C 203.464844 67.824219 203.464844 67.601562 204.816406 68.019531 C 203.769531 64.859375 200.734375 62.464844 197.421875 62.179688 C 193.8125 61.863281 190.425781 63.828125 187.414062 65.851562 C 185.515625 67.125 183.484375 68.507812 181.195312 68.457031 C 181.316406 68.839844 181.484375 69.242188 181.675781 69.652344 C 176.382812 68.949219 173.589844 72.140625 173.039062 72.988281 C 172.863281 72.710938 172.464844 73.386719 172.253906 73.0625 C 172.238281 73.035156 172.214844 73.003906 172.191406 72.972656 C 172.007812 72.6875 171.800781 72.382812 171.582031 72.058594 C 171.511719 71.964844 171.449219 71.871094 171.382812 71.773438 C 171.382812 71.773438 171.382812 71.769531 171.382812 71.769531 L 171.207031 71.515625 C 170.75 70.847656 170.28125 70.171875 169.816406 69.503906 C 168.867188 68.148438 167.898438 66.753906 167.074219 65.488281 C 171.746094 65.183594 176.507812 61.800781 178.75 57.164062 C 182.71875 58.851562 188.449219 58.066406 192.464844 57.316406 C 194.675781 56.90625 196.875 56.292969 199 55.710938 C 200.910156 55.179688 202.878906 54.636719 204.847656 54.238281 C 211.625 52.863281 218.71875 53.144531 225.367188 55.050781 C 225.777344 55.167969 226.183594 55.273438 226.597656 55.378906 C 228.726562 55.917969 230.570312 56.386719 231.191406 58.269531 C 231.785156 60.0625 232.386719 61.898438 232.773438 63.773438 C 232.808594 63.929688 232.832031 64.078125 232.859375 64.234375 C 232.960938 64.792969 233.054688 65.355469 233.109375 65.917969 C 233.171875 66.542969 233.277344 67.203125 233.382812 67.902344 C 233.710938 69.992188 234.070312 72.347656 233.199219 73.941406 C 232.394531 72.746094 229.914062 68.414062 214.816406 68.253906 C 215.34375 68.53125 216.957031 68.632812 217.390625 68.773438 C 218.464844 69.109375 219.503906 69.5625 220.480469 70.128906 C 222.304688 71.183594 223.914062 72.617188 225.851562 73.4375 C 228.042969 74.367188 230.484375 74.453125 232.859375 74.476562 C 232.988281 74.480469 233.132812 74.476562 233.234375 74.394531 C 233.269531 74.367188 233.28125 74.332031 233.304688 74.296875 L 233.769531 74.601562 C 234.972656 72.75 234.558594 70.105469 234.191406 67.773438 C 234.140625 67.433594 234.085938 67.097656 234.039062 66.777344 C 233.996094 66.453125 233.953125 66.140625 233.921875 65.839844 C 233.871094 65.265625 233.773438 64.652344 233.652344 64.007812 C 233.644531 63.953125 233.640625 63.898438 233.628906 63.84375 C 237.023438 62.601562 239.699219 60.863281 241.59375 58.671875 C 242.660156 57.4375 243.601562 55.921875 244.386719 54.164062 C 248.222656 45.636719 246.59375 34.777344 240.421875 27.753906 C 236.5625 23.359375 230.992188 20.25 224.734375 19.003906 C 221.699219 18.398438 218.535156 19.03125 215.488281 19.644531 C 213.394531 20.0625 211.257812 20.484375 209.171875 20.503906 L 209.164062 20.476562 C 209.132812 20.484375 209.101562 20.5 209.066406 20.507812 C 208.246094 20.507812 207.433594 20.453125 206.632812 20.300781 C 199.035156 18.847656 191.394531 19.425781 184.539062 21.980469 C 177.386719 24.644531 171.28125 29.429688 167.324219 35.46875 C 162.335938 35.851562 157.402344 38.597656 152.242188 43.855469 C 151.167969 44.949219 150.058594 46.15625 149.195312 47.574219 C 147.246094 50.808594 146.875 54.675781 146.757812 58.375 C 146.671875 61.234375 146.707031 64.28125 147.570312 67.183594 C 148.53125 70.398438 150.40625 72.917969 152.847656 74.277344"/></g><path fill="#151B14" d="M 229.234375 86.945312 L 229.355469 86.136719 C 226.269531 85.675781 223.042969 86.820312 220.9375 89.128906 L 221.542969 89.679688 C 223.433594 87.601562 226.453125 86.527344 229.234375 86.945312"/><path fill="#151B14" d="M 177.332031 86.75 C 180.480469 86.921875 183.457031 88.710938 185.09375 91.40625 L 185.789062 90.984375 C 184.015625 88.058594 180.796875 86.125 177.382812 85.929688 L 177.332031 86.75"/><path fill="#151B14" d="M 261.871094 189.890625 C 262.894531 182.65625 259.863281 175.316406 257.421875 169.40625 C 256.882812 168.105469 256.324219 166.761719 255.625 165.492188 L 254.910156 165.894531 C 255.589844 167.117188 256.136719 168.441406 256.671875 169.734375 C 259.070312 175.542969 262.054688 182.765625 261.0625 189.777344 L 261.871094 189.890625"/><path fill="#151B14" d="M 280.84375 234.113281 L 280.054688 233.898438 C 278.871094 238.207031 276.351562 242.175781 272.960938 245.089844 L 273.496094 245.707031 C 277.003906 242.695312 279.617188 238.574219 280.84375 234.113281"/><path fill="#151B14" d="M 186.894531 135.722656 C 186.613281 136.546875 185.683594 137.023438 184.511719 136.933594 C 184.222656 136.914062 183.953125 136.863281 183.707031 136.78125 C 183.308594 136.652344 182.992188 136.449219 182.773438 136.179688 C 182.597656 135.96875 182.464844 135.691406 182.375 135.34375 C 182.105469 134.335938 182.269531 133.554688 182.84375 133.140625 C 183.140625 132.925781 183.527344 132.820312 183.953125 132.820312 C 184.550781 132.820312 185.226562 133.03125 185.832031 133.429688 C 186.761719 134.046875 187.167969 134.921875 186.894531 135.722656 Z M 186.285156 132.753906 C 184.945312 131.863281 183.371094 131.757812 182.367188 132.480469 C 181.867188 132.839844 181.09375 133.71875 181.582031 135.554688 C 181.703125 136.015625 181.890625 136.402344 182.144531 136.703125 C 182.457031 137.085938 182.902344 137.375 183.457031 137.558594 C 183.761719 137.660156 184.09375 137.726562 184.449219 137.75 C 184.558594 137.757812 184.671875 137.761719 184.785156 137.761719 C 186.175781 137.761719 187.289062 137.085938 187.667969 135.988281 C 188.058594 134.835938 187.519531 133.566406 186.285156 132.753906"/><path fill="#151B14" d="M 176.808594 162.136719 C 176.46875 162.601562 176.09375 162.898438 175.703125 163.011719 C 174.789062 163.289062 173.820312 162.554688 173.445312 161.722656 C 173.011719 160.773438 173.089844 159.648438 173.234375 158.578125 C 173.398438 157.347656 173.851562 156.589844 174.507812 156.441406 C 174.59375 156.425781 174.679688 156.414062 174.769531 156.414062 C 175.46875 156.414062 176.296875 156.976562 176.875 157.867188 C 177.21875 158.390625 178.214844 160.246094 176.808594 162.136719 Z M 174.328125 155.648438 C 173.746094 155.777344 172.71875 156.320312 172.425781 158.464844 C 172.261719 159.660156 172.183594 160.921875 172.699219 162.058594 C 173.148438 163.046875 174.175781 163.890625 175.300781 163.890625 C 175.511719 163.890625 175.722656 163.859375 175.9375 163.796875 C 176.5 163.625 177.011719 163.234375 177.464844 162.628906 C 178.835938 160.789062 178.410156 158.734375 177.5625 157.421875 C 176.714844 156.113281 175.417969 155.40625 174.328125 155.648438"/><path fill="#151B14" d="M 168.542969 183.996094 C 168.507812 184.863281 167.921875 185.695312 167.113281 186.015625 C 166.304688 186.335938 165.304688 186.136719 164.6875 185.527344 C 163.835938 184.695312 163.757812 183.308594 163.84375 182.289062 C 163.921875 181.300781 164.238281 179.675781 165.445312 179.675781 C 165.476562 179.675781 165.503906 179.675781 165.53125 179.675781 C 166.933594 179.757812 168.628906 181.8125 168.542969 183.996094 Z M 163.03125 182.222656 C 162.886719 183.933594 163.261719 185.277344 164.117188 186.109375 C 164.691406 186.671875 165.503906 186.984375 166.3125 186.984375 C 166.691406 186.984375 167.066406 186.914062 167.417969 186.777344 C 168.511719 186.339844 169.3125 185.207031 169.363281 184.027344 C 169.464844 181.371094 167.371094 178.96875 165.582031 178.863281 C 164.902344 178.820312 163.285156 179.0625 163.03125 182.222656"/><path fill="#151B14" d="M 215.066406 203.03125 C 215.128906 200.359375 216.085938 197.734375 217.765625 195.652344 L 217.125 195.140625 C 215.335938 197.363281 214.316406 200.15625 214.246094 203.015625 L 215.066406 203.03125"/><g clip-path="url(#e)"><path fill="#151B14" d="M 135.871094 132.1875 C 146.738281 122.5 153.152344 121.152344 160.585938 119.597656 C 162.265625 119.242188 164 118.878906 165.859375 118.40625 C 174.792969 116.136719 183.1875 111.429688 187.675781 107.695312 C 188.324219 108.128906 192.078125 110.578125 196.507812 111.605469 L 196.691406 110.8125 C 192.078125 109.738281 188.09375 106.988281 188.050781 106.957031 L 187.632812 106.660156 L 187.394531 106.867188 C 183.039062 110.578125 174.625 115.339844 165.65625 117.617188 C 163.820312 118.082031 162.089844 118.445312 160.421875 118.796875 C 152.875 120.378906 146.359375 121.738281 135.328125 131.582031 C 122.207031 143.273438 94.804688 179.796875 91.164062 201.988281 C 91.035156 202.761719 90.941406 203.566406 90.859375 204.527344 L 91.671875 204.59375 C 91.753906 203.65625 91.84375 202.871094 91.96875 202.121094 C 95.445312 180.925781 122.527344 144.085938 135.871094 132.1875"/></g><g clip-path="url(#f)"><path fill="#151B14" d="M 283.46875 140.867188 C 271.390625 122.511719 259.523438 118.074219 246.378906 114.515625 C 237.222656 112.035156 228.785156 106.472656 224.335938 102.457031 L 223.785156 103.0625 C 228.300781 107.136719 236.875 112.792969 246.160156 115.300781 C 259.144531 118.820312 270.863281 123.199219 282.789062 141.316406 C 295.019531 159.902344 301.730469 183.261719 300.75 203.8125 C 300.375 211.636719 297.378906 216.089844 290.957031 221.878906 C 290.855469 222.210938 290.765625 222.539062 290.65625 222.867188 C 290 223.421875 290.828125 223.105469 291.566406 222.433594 C 298.007812 216.597656 301.179688 211.875 301.566406 203.847656 C 302.558594 183.136719 295.789062 159.589844 283.46875 140.867188"/></g></svg>