<svg xmlns="http://www.w3.org/2000/svg" width="375" viewBox="0 0 375 375" height="375" version="1.0"><defs><clipPath id="a"><path d="M 70.574219 294.589844 L 272.472656 294.589844 L 272.472656 365.460938 L 70.574219 365.460938 Z M 70.574219 294.589844"/></clipPath><clipPath id="b"><path d="M 63.589844 16 L 284.832031 16 L 284.832031 296.683594 L 63.589844 296.683594 Z M 63.589844 16"/></clipPath><clipPath id="c"><path d="M 63.589844 15.996094 L 284.832031 15.996094 L 284.832031 360 L 63.589844 360 Z M 63.589844 15.996094"/></clipPath></defs><g clip-path="url(#a)"><path fill="#F89C42" d="M 193.558594 298.480469 C 200.101562 294.726562 208.0625 294.296875 215.558594 295.152344 C 223.054688 296.003906 230.375 298.042969 237.875 298.886719 C 244.414062 299.617188 251.34375 299.523438 257.0625 302.777344 C 261.496094 305.304688 264.683594 309.617188 266.753906 314.277344 C 268.828125 318.933594 269.890625 323.96875 270.9375 328.957031 C 272.089844 334.429688 273.136719 340.539062 270.175781 345.285156 C 267.984375 348.796875 263.980469 350.792969 259.964844 351.789062 C 255.945312 352.789062 251.769531 352.957031 247.710938 353.765625 C 243.625 354.582031 239.671875 356.046875 236.042969 358.097656 C 233.0625 359.78125 230.28125 361.863281 227.105469 363.164062 C 223.671875 364.570312 219.925781 365.007812 216.222656 365.25 C 208.210938 365.777344 200.003906 365.4375 192.425781 362.78125 C 188.710938 361.480469 185.175781 359.632812 181.351562 358.703125 C 178.296875 357.96875 175.125 357.835938 171.984375 357.875 C 167.230469 357.929688 162.183594 358.449219 157.492188 359.207031 C 142.964844 361.566406 128.785156 353.339844 114.078125 352.769531 C 107.578125 352.519531 101.117188 353.777344 94.628906 354.277344 C 88.136719 354.777344 81.3125 354.449219 75.613281 351.308594 C 73.449219 350.121094 71.367188 348.316406 70.96875 345.886719 C 70.269531 341.570312 74.867188 338.5625 77.96875 335.480469 C 80.300781 333.160156 82.015625 330.222656 82.882812 327.050781 C 83.417969 325.082031 83.644531 323.019531 84.429688 321.128906 C 85.214844 319.246094 86.742188 317.488281 88.765625 317.191406 C 95.527344 316.199219 101.597656 314.691406 108.1875 312.886719 C 121.003906 309.378906 133.121094 302.792969 146.378906 301.898438 C 151.160156 301.574219 155.953125 302.011719 160.746094 302.078125 C 170.867188 302.21875 184.785156 303.515625 193.558594 298.480469"/></g><path fill="#D24D39" d="M 263.296875 308.320312 C 262.550781 307.554688 261.628906 306.816406 260.558594 306.824219 C 259.285156 306.832031 258.34375 307.851562 257.671875 308.988281 C 256.9375 308.105469 255.90625 307.421875 254.816406 307.050781 C 252.820312 306.371094 250.65625 306.496094 248.554688 306.605469 C 246.179688 306.726562 243.304688 306.621094 240.359375 306.683594 L 235.550781 293.589844 L 174.246094 273.082031 L 120.613281 294.265625 L 112.953125 294.3125 C 112.953125 294.3125 112.011719 298.738281 110.734375 304.046875 C 108.023438 304.582031 105.367188 305.390625 102.832031 306.488281 C 101.363281 307.128906 99.863281 308.921875 98.910156 311 C 95.03125 308.167969 89.585938 307.050781 86.304688 310.894531 C 85.722656 311.578125 85.28125 312.382812 85.058594 313.253906 C 84.09375 317.007812 86.816406 320.078125 90.003906 321.324219 C 92.4375 322.277344 95.121094 322.335938 97.734375 322.269531 C 99.664062 322.214844 101.871094 321.949219 102.945312 320.351562 C 102.957031 320.332031 102.964844 320.3125 102.976562 320.296875 C 103.835938 320.515625 104.777344 320.683594 105.757812 320.8125 C 105.648438 321.03125 105.539062 321.230469 105.429688 321.390625 C 102.84375 325.289062 103.773438 330.007812 108.433594 330.007812 L 116.230469 330.007812 C 119.113281 330.007812 121.980469 329.542969 124.738281 328.703125 C 125.441406 328.488281 126.117188 328.296875 126.636719 328.082031 C 130.460938 326.464844 134.679688 325.785156 138.824219 326.125 C 141.152344 326.3125 143.472656 326.8125 145.789062 327.136719 C 147.675781 327.402344 149.589844 326.921875 151.136719 325.8125 C 152.273438 325 153.429688 324.230469 154.660156 323.675781 C 156.914062 322.648438 159.5 322.363281 161.929688 322.863281 C 164.960938 323.488281 167.714844 325.289062 170.804688 325.488281 C 173.824219 325.679688 176.730469 324.316406 179.75 324.128906 C 183.75 323.882812 187.589844 325.707031 191.589844 325.980469 C 196.660156 326.324219 201.683594 324.160156 206.734375 324.71875 C 212.355469 325.335938 217.199219 329.238281 222.808594 329.957031 C 222.789062 329.976562 222.769531 329.988281 222.746094 330.007812 C 224.019531 330.007812 225.214844 330.007812 226.289062 330.007812 C 252.449219 330.007812 246.84375 324.328125 246.84375 324.328125 L 245.097656 319.566406 C 248.628906 319.460938 252.070312 318.84375 255.019531 317.035156 C 255.074219 318.019531 255.445312 318.808594 256.355469 319.136719 C 259.25 320.191406 262.851562 319.113281 264.679688 316.636719 C 265.269531 315.832031 265.699219 314.886719 265.796875 313.894531 C 266.007812 311.800781 264.765625 309.824219 263.296875 308.320312 Z M 139.535156 121.507812 C 139.042969 120.925781 138.578125 120.300781 138.179688 119.648438 C 150.125 115.023438 162.703125 109.839844 162.003906 98.546875 C 167.488281 97.992188 173.320312 97.34375 178.886719 97.226562 C 183.253906 107.082031 193.992188 130.632812 189.742188 142.464844 C 185.34375 141.992188 158.464844 131.957031 154.25 130.648438 C 148.65625 128.914062 143.304688 125.988281 139.535156 121.507812"/><g clip-path="url(#b)"><path fill="#FFF" d="M 269.316406 180.875 C 247.945312 141.964844 238.886719 133.832031 223.515625 125.324219 C 214.125 120.128906 198.195312 116.6875 190.65625 109.042969 C 187.917969 110.351562 184.828125 111.234375 182.058594 112.496094 C 181.007812 112.976562 179.964844 113.542969 179.21875 114.425781 C 177.660156 116.269531 177.886719 119.007812 178.109375 121.414062 C 176.027344 121.574219 173.933594 121.605469 171.847656 121.507812 C 171.609375 121.496094 171.363281 121.480469 171.167969 121.34375 C 170.941406 121.1875 170.84375 120.90625 170.769531 120.644531 C 170.269531 118.914062 170.117188 116.976562 168.929688 115.621094 C 167.28125 113.734375 164.425781 113.757812 161.972656 113.257812 C 159.863281 112.828125 157.867188 111.882812 156.171875 110.558594 C 148.140625 117.164062 133.71875 120.484375 124.96875 125.324219 C 109.601562 133.832031 100.542969 141.964844 79.171875 180.875 C 62.476562 211.28125 62.140625 239.570312 65.964844 260.359375 C 74.253906 258.214844 82.476562 255.839844 90.433594 252.699219 C 91.777344 252.167969 93.125 251.613281 94.476562 251.078125 C 92.140625 241.417969 101.429688 201.269531 118.832031 190.734375 C 116.234375 225.128906 116.453125 259.738281 119.503906 294.097656 C 126.300781 294.394531 218.722656 299.277344 229.351562 294.097656 C 232.472656 258.964844 232.636719 223.570312 229.851562 188.414062 C 232.957031 190.84375 235.902344 193.492188 238.695312 196.035156 C 255.609375 211.425781 256.765625 238.167969 253.691406 252.730469 C 260.34375 254.96875 266.917969 257.394531 273.210938 260.582031 C 276.046875 262.019531 278.824219 263.609375 281.496094 265.355469 C 286.289062 244.234375 287.390625 213.792969 269.316406 180.875 Z M 213.734375 57.351562 C 213.160156 59.996094 212.511719 62.304688 211.125 64.625 C 209.449219 67.421875 209.535156 70.554688 209.519531 73.726562 C 209.503906 77.433594 209.503906 81.34375 207.730469 84.710938 C 204.53125 90.769531 197.039062 92.765625 191.050781 96.105469 C 188.625 97.453125 186.359375 99.105469 183.800781 100.191406 C 182.78125 100.625 181.726562 100.960938 180.65625 101.230469 C 180.003906 99.738281 179.398438 98.382812 178.886719 97.226562 C 173.320312 97.34375 167.488281 97.992188 162.003906 98.546875 C 162.128906 100.644531 161.804688 102.53125 161.105469 104.242188 C 159.179688 104.492188 157.25 104.695312 155.308594 104.773438 C 152.195312 104.890625 148.988281 104.671875 146.152344 103.382812 C 144.414062 102.589844 142.878906 101.429688 141.269531 100.40625 C 137.394531 97.941406 133.039062 96.246094 129.34375 93.519531 C 125.648438 90.792969 122.550781 86.609375 122.84375 82.023438 C 123.03125 78.988281 124.671875 76.242188 126.441406 73.761719 C 130.574219 67.960938 135.773438 62.648438 137.890625 55.851562 C 138.390625 54.234375 138.230469 52.527344 138.269531 50.839844 C 138.289062 50.101562 138.335938 49.363281 138.40625 48.628906 C 138.59375 46.585938 138.976562 44.5625 139.539062 42.589844 C 140.058594 40.765625 140.9375 39.09375 141.46875 37.300781 C 142.449219 33.976562 143.75 30.523438 146.453125 28.203125 C 147.996094 26.882812 149.878906 26.042969 151.753906 25.25 C 158.472656 22.402344 165.371094 19.96875 172.390625 17.960938 C 174.765625 17.28125 177.167969 16.648438 179.632812 16.425781 C 185.066406 15.945312 190.664062 17.582031 194.980469 20.917969 C 196.863281 22.375 198.492188 24.125 200.117188 25.867188 C 204.144531 30.195312 208.199219 34.558594 211.296875 39.597656 C 212.664062 41.820312 213.84375 44.199219 214.363281 46.761719 C 215.082031 50.285156 214.488281 53.886719 213.734375 57.351562"/></g><path fill="#FFC3A8" d="M 213.214844 319.710938 C 211.539062 318.792969 210.824219 319.074219 209.097656 319.164062 C 205.515625 319.347656 204.035156 314.539062 206.765625 312.425781 C 207.992188 311.476562 209.695312 311.347656 210.984375 310.480469 C 211.976562 309.8125 212.652344 308.757812 213.625 308.070312 C 215.183594 306.964844 217.417969 306.984375 219.023438 308.011719 C 220.632812 309.039062 221.574219 310.980469 221.519531 312.886719 C 221.484375 314.042969 221.109375 315.203125 221.328125 316.339844 C 221.507812 317.324219 222.121094 318.21875 222.101562 319.21875 C 222.070312 320.867188 220.265625 322.023438 218.617188 321.980469 C 216.585938 321.925781 214.925781 320.644531 213.214844 319.710938 Z M 162.105469 317.402344 C 163.160156 317.449219 163.503906 319.125 163.308594 319.917969 C 163.167969 320.46875 162.765625 320.976562 162.21875 321.148438 C 161.671875 321.320312 161.003906 321.113281 160.71875 320.613281 C 160.535156 320.296875 160.527344 319.910156 160.535156 319.539062 C 160.558594 318.714844 161.039062 317.351562 162.105469 317.402344 Z M 144.125 318.527344 C 144.347656 317.402344 145.164062 316.949219 146.035156 316.332031 C 148.285156 314.726562 150.660156 311.199219 153.746094 313.628906 C 154.875 314.515625 155.367188 316.164062 154.828125 317.496094 C 154.378906 318.609375 153.355469 319.359375 152.457031 320.144531 C 151.535156 320.949219 150.683594 321.851562 149.621094 322.457031 C 148.558594 323.058594 147.191406 323.308594 146.121094 322.71875 C 144.734375 321.964844 143.820312 320.074219 144.125 318.527344 Z M 281.496094 265.355469 C 278.671875 277.796875 274.566406 287.011719 272.351562 291.578125 C 269.558594 297.324219 256.808594 324.644531 252.800781 324.898438 C 248.789062 325.148438 249.542969 321.390625 249.542969 321.390625 C 249.542969 321.390625 246.28125 326.148438 242.773438 326.148438 C 239.265625 326.148438 241.519531 320.640625 241.519531 320.640625 C 241.519531 320.640625 236.324219 327.152344 233.0625 325.648438 C 229.804688 324.148438 233.148438 316.527344 233.148438 316.527344 C 233.148438 316.527344 228.238281 320.390625 227.734375 313.875 C 227.230469 307.363281 235.183594 294.058594 235.550781 293.589844 C 233.832031 293.589844 230.019531 293.644531 228.15625 293.632812 C 231.175781 287.464844 247.214844 269.117188 251.644531 259.363281 C 252.421875 257.65625 253.128906 255.394531 253.691406 252.730469 C 260.34375 254.96875 266.917969 257.394531 273.210938 260.582031 C 276.046875 262.019531 278.824219 263.609375 281.496094 265.355469 Z M 116.195312 302.863281 C 118.253906 306.992188 122.027344 311.796875 121.382812 314.304688 C 119.757812 320.632812 115.339844 316.527344 115.339844 316.527344 C 115.339844 316.527344 118.683594 324.148438 115.425781 325.648438 C 112.167969 327.152344 106.96875 320.640625 106.96875 320.640625 C 106.96875 320.640625 109.222656 326.148438 105.714844 326.148438 C 102.207031 326.148438 98.945312 321.390625 98.945312 321.390625 C 98.945312 321.390625 99.699219 325.148438 95.6875 324.898438 C 91.675781 324.644531 78.925781 297.324219 76.140625 291.578125 C 73.632812 286.417969 68.722656 275.335938 65.964844 260.359375 C 74.253906 258.214844 82.476562 255.839844 90.433594 252.699219 C 91.777344 252.167969 93.125 251.613281 94.476562 251.078125 C 95.082031 254.46875 95.910156 257.316406 96.839844 259.363281 C 101.453125 269.503906 118.589844 288.890625 120.613281 294.265625 C 118.90625 294.277344 112.953125 294.3125 112.953125 294.3125 C 112.953125 294.3125 114.226562 298.90625 116.195312 302.863281 Z M 118.832031 190.734375 Z M 177.777344 71.421875 C 177.777344 71.421875 180.207031 59.617188 193.910156 64.0625 C 193.910156 64.0625 190.710938 76.875 177.777344 71.421875 Z M 152.621094 64.0625 C 166.324219 59.617188 168.753906 71.421875 168.753906 71.421875 C 155.824219 76.875 152.621094 64.0625 152.621094 64.0625 Z M 204.796875 69.035156 C 203.363281 66.105469 200.882812 65.945312 198.945312 67.070312 C 198.945312 67.046875 198.945312 67.019531 198.945312 66.996094 C 198.863281 67.0625 198.78125 67.128906 198.691406 67.191406 C 195.476562 57.3125 184.980469 50.625 174.589844 50.941406 C 164.214844 51.253906 154.539062 57.976562 149.707031 67.15625 C 149.707031 67.160156 149.707031 67.164062 149.707031 67.167969 C 149.699219 67.175781 149.691406 67.1875 149.683594 67.203125 C 149.472656 67.101562 149.273438 66.976562 149.082031 66.832031 C 147.226562 65.988281 145.011719 66.332031 143.691406 69.035156 C 141.9375 72.636719 145.609375 81.105469 150.425781 81.140625 C 153.402344 95.179688 162.976562 105.460938 174.332031 105.460938 C 175.046875 105.460938 175.757812 105.417969 176.453125 105.335938 C 174.804688 110.71875 173.085938 116.074219 171.292969 121.410156 C 171.460938 121.484375 171.660156 121.5 171.847656 121.507812 C 173.933594 121.605469 176.027344 121.574219 178.109375 121.414062 C 177.886719 119.007812 177.660156 116.269531 179.21875 114.425781 C 179.964844 113.542969 181.007812 112.976562 182.058594 112.496094 C 184.824219 111.238281 187.910156 110.355469 190.644531 109.046875 C 188.441406 106.8125 186.960938 104.214844 186.566406 101.113281 C 192.171875 96.820312 196.425781 89.679688 198.238281 81.144531 C 202.964844 80.90625 206.527344 72.597656 204.796875 69.035156"/><g clip-path="url(#c)"><path fill="#151B14" d="M 155.328125 105.121094 C 157.449219 104.992188 161.105469 104.601562 161.140625 104.597656 L 161.066406 103.902344 C 161.027344 103.90625 157.390625 104.296875 155.285156 104.421875 C 151.777344 104.636719 148.753906 104.179688 146.292969 103.0625 C 145.054688 102.5 143.886719 101.71875 142.757812 100.964844 C 142.328125 100.679688 141.894531 100.390625 141.457031 100.109375 C 139.792969 99.054688 138.019531 98.125 136.304688 97.226562 C 134.015625 96.027344 131.652344 94.789062 129.550781 93.242188 C 125.320312 90.117188 122.941406 85.933594 123.1875 82.050781 C 123.378906 79.023438 125.085938 76.265625 126.726562 73.964844 C 127.769531 72.496094 128.910156 71.03125 130.003906 69.617188 C 133.257812 65.421875 136.625 61.085938 138.222656 55.953125 C 138.621094 54.667969 138.617188 53.324219 138.613281 52.027344 C 138.613281 51.632812 138.613281 51.242188 138.621094 50.847656 C 138.640625 50.121094 138.683594 49.386719 138.75 48.660156 C 138.941406 46.644531 139.316406 44.632812 139.875 42.683594 C 140.136719 41.765625 140.5 40.863281 140.851562 39.992188 C 141.1875 39.15625 141.539062 38.289062 141.800781 37.398438 C 142.78125 34.09375 144.046875 30.722656 146.679688 28.472656 C 148.160156 27.203125 149.988281 26.375 151.890625 25.574219 C 158.570312 22.742188 165.5 20.292969 172.484375 18.296875 C 174.746094 17.648438 177.164062 17 179.660156 16.777344 C 185.011719 16.300781 190.515625 17.910156 194.765625 21.195312 C 196.636719 22.640625 198.277344 24.398438 199.859375 26.105469 C 203.816406 30.355469 207.910156 34.75 210.996094 39.777344 C 212.617188 42.417969 213.578125 44.660156 214.023438 46.832031 C 214.753906 50.4375 214.082031 54.113281 213.394531 57.277344 C 212.789062 60.058594 212.148438 62.230469 210.824219 64.445312 C 209.191406 67.175781 209.183594 70.238281 209.175781 73.203125 L 209.171875 73.859375 C 209.152344 77.515625 209.136719 81.296875 207.421875 84.546875 C 205.109375 88.929688 201.878906 90.425781 197.785156 92.320312 C 196.347656 92.984375 194.863281 93.675781 193.296875 94.546875 L 193.636719 95.15625 C 195.179688 94.296875 196.65625 93.613281 198.078125 92.953125 C 202.125 91.082031 205.617188 89.464844 208.039062 84.871094 C 209.835938 81.472656 209.851562 77.605469 209.871094 73.863281 L 209.875 73.207031 C 209.882812 70.203125 209.890625 67.367188 211.421875 64.804688 C 212.792969 62.511719 213.476562 60.199219 214.074219 57.425781 C 214.78125 54.191406 215.464844 50.429688 214.707031 46.691406 C 214.246094 44.441406 213.257812 42.128906 211.59375 39.410156 C 208.472656 34.324219 204.351562 29.90625 200.371094 25.628906 C 198.765625 23.90625 197.109375 22.121094 195.195312 20.644531 C 190.808594 17.25 185.125 15.585938 179.601562 16.082031 C 177.042969 16.308594 174.585938 16.96875 172.289062 17.625 C 165.28125 19.628906 158.328125 22.085938 151.617188 24.929688 C 149.660156 25.753906 147.78125 26.609375 146.226562 27.941406 C 143.457031 30.3125 142.140625 33.792969 141.132812 37.203125 C 140.878906 38.058594 140.535156 38.910156 140.203125 39.730469 C 139.847656 40.621094 139.476562 41.539062 139.203125 42.492188 C 138.632812 44.484375 138.246094 46.535156 138.054688 48.59375 C 137.988281 49.335938 137.945312 50.089844 137.921875 50.832031 C 137.914062 51.230469 137.914062 51.628906 137.917969 52.027344 C 137.917969 53.328125 137.921875 54.558594 137.554688 55.746094 C 135.996094 60.757812 132.667969 65.042969 129.453125 69.1875 C 128.351562 70.609375 127.210938 72.078125 126.15625 73.558594 C 124.457031 75.941406 122.695312 78.808594 122.492188 82.003906 C 122.230469 86.128906 124.714844 90.539062 129.136719 93.800781 C 131.28125 95.382812 133.671875 96.632812 135.980469 97.84375 C 137.683594 98.738281 139.441406 99.660156 141.082031 100.699219 C 141.511719 100.976562 141.941406 101.261719 142.371094 101.546875 C 143.523438 102.316406 144.710938 103.109375 146.003906 103.699219 C 148.160156 104.679688 150.722656 105.171875 153.640625 105.171875 C 154.1875 105.171875 154.753906 105.152344 155.328125 105.121094 Z M 153.171875 89.535156 L 152.578125 89.164062 C 150.316406 92.789062 148.59375 96.710938 147.449219 100.824219 L 148.121094 101.015625 C 149.246094 96.964844 150.945312 93.101562 153.171875 89.535156 Z M 143.8125 90.308594 C 144.527344 87.992188 144.707031 85.566406 144.875 83.214844 L 144.179688 83.164062 C 144.011719 85.476562 143.839844 87.863281 143.144531 90.101562 C 142.609375 91.832031 141.511719 94.199219 139.324219 95.648438 L 139.710938 96.234375 C 142.066406 94.667969 143.242188 92.144531 143.8125 90.308594 Z M 138.351562 80.117188 C 140.023438 77.769531 141.15625 74.863281 141.8125 71.230469 L 141.125 71.105469 C 140.488281 74.632812 139.394531 77.449219 137.78125 79.710938 C 135.871094 82.394531 133.164062 84.222656 130.347656 84.722656 L 130.472656 85.410156 C 133.464844 84.875 136.332031 82.945312 138.351562 80.117188 Z M 208.035156 63.417969 L 204.078125 61.199219 L 203.734375 61.808594 L 207.691406 64.027344 Z M 210.871094 55.660156 L 210.6875 54.988281 C 208.152344 55.679688 205.378906 55.621094 202.878906 54.824219 L 202.667969 55.488281 C 204.078125 55.941406 205.574219 56.167969 207.066406 56.167969 C 208.351562 56.167969 209.640625 55.996094 210.871094 55.660156 Z M 210.84375 41.371094 L 210.171875 41.175781 C 209.238281 44.425781 205.855469 46.824219 202.484375 46.648438 L 202.445312 47.34375 C 202.578125 47.351562 202.703125 47.355469 202.835938 47.355469 C 206.386719 47.355469 209.859375 44.789062 210.84375 41.371094 Z M 201.675781 34.449219 L 201 34.277344 C 200.339844 36.875 198.886719 39.300781 196.910156 41.113281 L 197.382812 41.628906 C 199.460938 39.726562 200.984375 37.175781 201.675781 34.449219 Z M 191.183594 37.5625 C 190.359375 33.90625 191.09375 29.855469 193.15625 26.71875 L 192.570312 26.339844 C 190.410156 29.625 189.636719 33.878906 190.5 37.714844 Z M 179.417969 33.960938 C 177.660156 29.828125 176.644531 25.457031 176.398438 20.972656 L 175.703125 21.007812 C 175.953125 25.578125 176.988281 30.027344 178.773438 34.234375 Z M 167.765625 36.609375 L 167.707031 35.914062 C 165.53125 36.09375 163.117188 35.292969 160.917969 33.667969 C 158.917969 32.1875 157.289062 30.226562 155.710938 28.335938 L 155.175781 28.78125 C 156.777344 30.707031 158.4375 32.699219 160.503906 34.230469 C 162.617188 35.792969 164.9375 36.636719 167.101562 36.636719 C 167.324219 36.636719 167.542969 36.625 167.765625 36.609375 Z M 149.074219 52.039062 L 148.65625 51.480469 C 145.117188 54.132812 141.382812 58.097656 138.65625 62.085938 L 139.234375 62.476562 C 141.917969 58.550781 145.597656 54.648438 149.074219 52.039062 Z M 156.703125 41.230469 C 156.453125 41.207031 156.179688 41.1875 155.894531 41.164062 C 153.535156 40.980469 149.96875 40.703125 147.769531 38.957031 L 147.335938 39.503906 C 149.703125 41.378906 153.394531 41.667969 155.839844 41.859375 C 156.125 41.882812 156.394531 41.90625 156.644531 41.925781 Z M 197.035156 54 L 196.589844 54.539062 C 199.839844 57.246094 201.957031 62.269531 201.625 66.488281 L 202.320312 66.542969 C 202.667969 62.117188 200.449219 56.84375 197.035156 54 Z M 147.695312 59.925781 C 146.015625 58.183594 146.628906 55.0625 148.1875 53.050781 C 149.066406 51.917969 150.191406 50.960938 151.28125 50.03125 C 152.195312 49.253906 153.140625 48.449219 153.957031 47.535156 C 155.382812 45.933594 156.414062 44 156.949219 41.925781 C 162.09375 41.859375 167.070312 39.027344 169.605469 37.324219 C 175.066406 33.660156 183.699219 36.734375 188.359375 38.894531 C 196.015625 42.445312 200.480469 46.714844 201.628906 51.585938 C 202.144531 53.765625 201.492188 55.777344 199.636719 57.730469 L 200.144531 58.210938 C 202.175781 56.070312 202.882812 53.851562 202.308594 51.425781 C 201.109375 46.335938 196.511719 41.90625 188.652344 38.261719 C 183.859375 36.039062 174.960938 32.886719 169.214844 36.746094 C 164.910156 39.640625 160.488281 41.230469 156.757812 41.230469 C 156.730469 41.230469 156.703125 41.230469 156.675781 41.230469 L 156.398438 41.226562 L 156.335938 41.496094 C 155.847656 43.5625 154.84375 45.488281 153.433594 47.070312 C 152.648438 47.949219 151.726562 48.738281 150.828125 49.5 C 149.710938 50.453125 148.558594 51.433594 147.632812 52.625 C 145.914062 54.839844 145.179688 58.320312 147.195312 60.40625 Z M 147.601562 66.03125 C 146.761719 62.1875 148.082031 57.972656 150.964844 55.296875 L 150.488281 54.785156 C 147.429688 57.628906 146.027344 62.097656 146.917969 66.179688 Z M 199 77.582031 L 198.308594 77.660156 C 198.421875 78.714844 198.257812 79.785156 197.832031 80.757812 L 198.472656 81.039062 C 198.945312 79.953125 199.128906 78.761719 199 77.582031 Z M 164.65625 60.097656 L 165.140625 59.59375 C 163.4375 57.957031 161.214844 56.90625 158.886719 56.5625 C 158.613281 56.761719 158.347656 56.96875 158.082031 57.175781 C 160.519531 57.371094 162.886719 58.398438 164.65625 60.097656 Z M 189.832031 59.421875 L 190.054688 58.761719 C 186.234375 57.476562 181.921875 57.996094 178.519531 60.152344 L 178.890625 60.746094 C 182.121094 58.699219 186.210938 58.203125 189.832031 59.421875 Z M 200.882812 70.601562 C 201.195312 70.152344 201.777344 69.746094 202.375 69.851562 L 202.492188 69.160156 C 201.703125 69.027344 200.847656 69.433594 200.308594 70.199219 C 199.859375 70.839844 199.679688 71.613281 199.546875 72.355469 L 200.234375 72.476562 C 200.367188 71.710938 200.53125 71.097656 200.882812 70.601562 Z M 168.753906 71.421875 C 168.753906 71.421875 167.324219 64.503906 160.5 63.257812 C 159.535156 64.5625 158.957031 66.171875 158.957031 67.917969 C 158.957031 69.625 159.507812 71.199219 160.433594 72.488281 C 162.609375 73.023438 165.339844 72.859375 168.753906 71.421875 Z M 191.632812 82.722656 C 191.757812 82.953125 192.03125 83.117188 192.28125 83.046875 C 192.402344 83.011719 192.507812 82.929688 192.589844 82.839844 C 193.011719 82.394531 193.050781 81.429688 192.3125 81.257812 C 191.589844 81.09375 191.382812 82.242188 191.632812 82.722656 Z M 188.171875 79.242188 C 188.183594 79.585938 188.34375 79.964844 188.671875 80.054688 C 188.867188 80.109375 189.089844 80.042969 189.242188 79.90625 C 189.398438 79.769531 189.488281 79.574219 189.527344 79.371094 C 189.773438 78.121094 188.109375 77.722656 188.171875 79.242188 Z M 154.171875 85.957031 C 154.28125 86.199219 154.597656 86.304688 154.859375 86.238281 C 155.117188 86.164062 155.320312 85.957031 155.449219 85.722656 C 155.722656 85.242188 155.644531 84.328125 154.910156 84.394531 C 154.277344 84.445312 153.945312 85.441406 154.171875 85.957031 Z M 160.707031 81.589844 C 160.84375 81.867188 161.140625 82.070312 161.445312 82.042969 C 161.753906 82.007812 162.003906 81.738281 162.074219 81.4375 C 162.191406 80.957031 161.863281 79.9375 161.242188 79.941406 C 160.550781 79.949219 160.476562 81.144531 160.707031 81.589844 Z M 155.554688 78.472656 C 155.535156 78.710938 155.546875 78.984375 155.71875 79.152344 C 155.828125 79.25 155.976562 79.292969 156.125 79.308594 C 156.480469 79.347656 156.878906 79.222656 157.050781 78.910156 C 157.277344 78.496094 156.953125 77.496094 156.453125 77.378906 C 155.875 77.242188 155.59375 78.046875 155.554688 78.472656 Z M 192.984375 51.023438 C 192.054688 50.0625 190.898438 49.320312 189.636719 48.875 L 189.40625 49.53125 C 190.5625 49.941406 191.628906 50.625 192.480469 51.507812 Z M 199.019531 67.070312 C 198.964844 66.933594 193.777344 53.539062 178.765625 50.832031 L 178.640625 51.519531 C 193.253906 54.152344 198.316406 67.183594 198.367188 67.316406 Z M 119.457031 289.40625 C 116.800781 256.734375 116.703125 223.542969 119.179688 190.761719 L 119.230469 190.085938 L 118.648438 190.4375 C 100.621094 201.347656 91.902344 241.929688 94.140625 251.164062 L 94.816406 251 C 93.769531 246.660156 95.082031 234.792969 99.582031 221.347656 C 102.433594 212.824219 108.640625 197.757812 118.429688 191.398438 C 116.007812 223.992188 116.117188 256.984375 118.757812 289.460938 Z M 230.261719 189.183594 C 233.09375 191.4375 235.757812 193.835938 238.460938 196.292969 C 256.234375 212.464844 255.972656 240.234375 253.347656 252.65625 L 254.03125 252.800781 C 256.683594 240.242188 256.941406 212.164062 238.929688 195.777344 C 236.019531 193.128906 233.152344 190.550781 230.066406 188.140625 L 229.441406 187.648438 L 229.503906 188.441406 C 232.136719 221.695312 232.121094 255.386719 229.46875 288.582031 L 230.164062 288.640625 C 232.800781 255.675781 232.835938 222.214844 230.261719 189.183594 Z M 269.621094 180.703125 C 248 141.335938 239.019531 133.503906 223.683594 125.019531 C 220.234375 123.109375 215.976562 121.464844 211.46875 119.71875 C 203.683594 116.707031 195.636719 113.59375 190.90625 108.796875 L 190.730469 108.621094 L 190.507812 108.726562 C 189.074219 109.410156 187.511719 109.988281 186.003906 110.550781 C 184.640625 111.054688 183.234375 111.578125 181.914062 112.179688 C 180.90625 112.636719 179.761719 113.242188 178.953125 114.199219 C 177.355469 116.097656 177.519531 118.820312 177.730469 121.09375 C 175.78125 121.230469 173.808594 121.25 171.863281 121.160156 C 171.65625 121.152344 171.476562 121.132812 171.367188 121.058594 C 171.234375 120.960938 171.160156 120.746094 171.101562 120.546875 C 170.976562 120.113281 170.875 119.667969 170.773438 119.226562 C 170.460938 117.871094 170.132812 116.46875 169.191406 115.390625 C 167.820312 113.820312 165.714844 113.5 163.671875 113.191406 C 163.121094 113.105469 162.574219 113.023438 162.042969 112.917969 C 160.019531 112.5 158.0625 111.59375 156.386719 110.28125 L 156.164062 110.109375 L 155.949219 110.289062 C 151.109375 114.269531 143.949219 117.039062 137.023438 119.71875 C 132.511719 121.460938 128.253906 123.109375 124.800781 125.019531 C 109.46875 133.503906 100.488281 141.332031 78.867188 180.703125 C 64.992188 205.964844 60.539062 232.785156 65.621094 260.421875 L 66.308594 260.296875 C 61.253906 232.820312 65.6875 206.15625 79.480469 181.042969 C 101.011719 141.832031 109.929688 134.046875 125.140625 125.628906 C 128.546875 123.746094 132.789062 122.105469 137.273438 120.367188 C 144.152344 117.710938 151.257812 114.960938 156.175781 111 C 157.890625 112.285156 159.867188 113.183594 161.902344 113.597656 C 162.445312 113.710938 163.003906 113.792969 163.570312 113.878906 C 165.484375 114.171875 167.464844 114.472656 168.667969 115.847656 C 169.492188 116.796875 169.785156 118.050781 170.089844 119.382812 C 170.199219 119.839844 170.304688 120.296875 170.433594 120.742188 C 170.53125 121.074219 170.660156 121.414062 170.96875 121.628906 C 171.25 121.828125 171.601562 121.847656 171.832031 121.855469 C 173.925781 121.957031 176.046875 121.925781 178.136719 121.765625 L 178.492188 121.738281 L 178.457031 121.382812 C 178.25 119.171875 177.992188 116.421875 179.488281 114.648438 C 180.207031 113.792969 181.265625 113.242188 182.203125 112.8125 C 183.5 112.222656 184.894531 111.707031 186.242188 111.207031 C 187.691406 110.667969 189.183594 110.117188 190.582031 109.464844 C 195.441406 114.269531 203.457031 117.371094 211.214844 120.371094 C 215.699219 122.105469 219.9375 123.746094 223.347656 125.628906 C 238.558594 134.046875 247.472656 141.832031 269.007812 181.042969 C 287.292969 214.335938 285.707031 245.226562 281.15625 265.273438 L 281.835938 265.429688 C 286.414062 245.261719 288.007812 214.191406 269.621094 180.703125 Z M 193.207031 325.761719 L 193.164062 325.066406 C 191.414062 325.171875 189.652344 325.050781 187.933594 324.707031 L 187.796875 325.386719 C 189.160156 325.664062 190.550781 325.800781 191.9375 325.800781 C 192.363281 325.800781 192.785156 325.789062 193.207031 325.761719 Z M 223.105469 329.480469 L 223.066406 328.785156 C 220.121094 328.945312 217.460938 327.671875 214.640625 326.328125 C 212.335938 325.226562 209.957031 324.089844 207.402344 323.804688 C 205.457031 323.589844 203.519531 323.875 201.640625 324.15625 L 195.570312 325.050781 L 195.671875 325.742188 L 201.742188 324.84375 C 203.574219 324.574219 205.46875 324.292969 207.328125 324.5 C 209.761719 324.773438 212.089844 325.882812 214.339844 326.957031 C 216.957031 328.207031 219.652344 329.492188 222.566406 329.492188 C 222.746094 329.492188 222.925781 329.492188 223.105469 329.480469 Z M 179.65625 337.546875 L 179.371094 336.910156 C 177.777344 337.625 175.839844 337.882812 173.273438 337.722656 C 166.332031 337.296875 159.078125 334.453125 151.105469 329.039062 L 150.710938 329.613281 C 158.792969 335.105469 166.160156 337.984375 173.230469 338.421875 C 173.726562 338.453125 174.199219 338.46875 174.65625 338.46875 C 176.65625 338.46875 178.269531 338.167969 179.65625 337.546875 Z M 249.726562 350.992188 C 251.136719 350.859375 252.539062 350.726562 253.933594 350.582031 C 256.699219 350.292969 259.449219 349.726562 260.855469 347.554688 L 260.269531 347.175781 C 259.023438 349.101562 256.453125 349.617188 253.859375 349.886719 C 252.46875 350.03125 251.066406 350.164062 249.660156 350.296875 C 240.828125 351.128906 231.691406 351.992188 223.90625 356.34375 L 224.246094 356.953125 C 231.90625 352.671875 240.964844 351.820312 249.726562 350.992188 Z M 216.140625 359.4375 L 216.019531 358.75 C 213.167969 359.257812 210.167969 359.203125 207.339844 358.59375 L 207.195312 359.273438 C 208.789062 359.621094 210.441406 359.792969 212.089844 359.792969 C 213.449219 359.792969 214.8125 359.675781 216.140625 359.4375 Z M 202.867188 358.558594 C 197.28125 355.472656 190.957031 353.792969 184.578125 353.707031 C 181.410156 353.664062 178.214844 354.011719 175.125 354.351562 C 172.714844 354.613281 170.21875 354.886719 167.761719 354.96875 C 161.015625 355.199219 155.746094 353.757812 152.109375 350.695312 L 151.660156 351.230469 C 155.433594 354.40625 160.863281 355.890625 167.785156 355.664062 C 170.269531 355.582031 172.777344 355.308594 175.203125 355.042969 C 178.269531 354.707031 181.441406 354.359375 184.566406 354.40625 C 190.832031 354.492188 197.042969 356.140625 202.53125 359.171875 Z M 113.292969 350.8125 L 113.28125 350.117188 C 105.660156 350.265625 97.949219 349.980469 90.355469 349.257812 C 87.292969 348.96875 84.320312 348.597656 81.683594 347.285156 C 79.410156 346.148438 76.875 343.820312 76.582031 340.679688 L 75.886719 340.742188 C 76.152344 343.609375 78.257812 346.355469 81.371094 347.910156 C 84.117188 349.277344 87.15625 349.65625 90.292969 349.953125 C 96.585938 350.550781 102.964844 350.851562 109.304688 350.851562 C 110.636719 350.851562 111.964844 350.839844 113.292969 350.8125 Z M 265.957031 328.890625 C 262.824219 327.957031 259.589844 326.988281 256.25 326.75 C 253.609375 326.558594 249.789062 326.777344 246.550781 328.902344 L 246.933594 329.488281 C 250.011719 327.46875 253.671875 327.261719 256.199219 327.445312 C 259.464844 327.683594 262.664062 328.636719 265.757812 329.5625 Z M 87.8125 271.863281 L 87.648438 271.183594 C 84.304688 272 81.191406 273.859375 78.890625 276.425781 L 79.410156 276.890625 C 81.617188 274.433594 84.605469 272.644531 87.8125 271.863281 Z M 140.613281 289.019531 C 140.007812 287.929688 138.949219 284.625 139.734375 283.441406 C 139.953125 283.113281 140.316406 282.980469 140.84375 283.035156 C 142.074219 283.167969 142.804688 284.027344 143.199219 284.730469 C 143.980469 286.113281 144.121094 288.03125 143.535156 289.289062 C 143.378906 289.628906 143.035156 290.21875 142.492188 290.34375 C 141.746094 290.519531 141.03125 289.773438 140.613281 289.019531 Z M 142.652344 291.023438 C 143.4375 290.839844 143.914062 290.136719 144.167969 289.585938 C 144.84375 288.136719 144.691406 285.953125 143.804688 284.386719 C 143.132812 283.195312 142.109375 282.46875 140.917969 282.339844 C 139.917969 282.238281 139.40625 282.671875 139.152344 283.054688 C 138.140625 284.578125 139.347656 288.183594 140 289.359375 C 140.480469 290.222656 141.304688 291.070312 142.269531 291.070312 C 142.394531 291.070312 142.519531 291.050781 142.652344 291.023438 Z M 140.171875 261.511719 C 139.695312 260.167969 138.976562 256.792969 139.945312 255.535156 C 140.230469 255.160156 140.652344 255.003906 141.230469 255.050781 C 141.660156 255.089844 142 255.296875 142.261719 255.6875 C 143.199219 257.097656 142.851562 260.5 142.410156 261.855469 C 142.21875 262.445312 141.980469 262.777344 141.679688 262.878906 C 141.359375 262.988281 140.988281 262.8125 140.765625 262.589844 C 140.480469 262.308594 140.3125 261.902344 140.171875 261.511719 Z M 141.902344 263.539062 C 142.683594 263.277344 142.980469 262.371094 143.078125 262.074219 C 143.488281 260.800781 144.011719 257.054688 142.84375 255.300781 C 142.457031 254.726562 141.9375 254.410156 141.285156 254.355469 C 140.464844 254.285156 139.828125 254.542969 139.390625 255.109375 C 137.90625 257.039062 139.5 261.699219 139.515625 261.746094 C 139.683594 262.21875 139.890625 262.707031 140.273438 263.085938 C 140.613281 263.421875 141.054688 263.609375 141.476562 263.609375 C 141.621094 263.609375 141.765625 263.585938 141.902344 263.539062 Z M 138.144531 228.15625 C 138.125 228.03125 138.105469 227.875 138.082031 227.695312 C 137.925781 226.5625 137.519531 223.554688 138.308594 223 C 138.578125 222.8125 138.839844 222.773438 139.144531 222.875 C 140.070312 223.1875 140.953125 224.699219 141.1875 225.453125 C 141.699219 227.101562 141.722656 228.921875 141.25 230.582031 C 141.140625 230.960938 140.820312 231.851562 140.1875 231.925781 C 139.679688 231.984375 139.210938 231.5 138.941406 231.023438 C 138.433594 230.125 138.253906 229.066406 138.144531 228.15625 Z M 140.269531 232.617188 C 141.023438 232.527344 141.605469 231.871094 141.921875 230.773438 C 142.429688 228.984375 142.40625 227.023438 141.855469 225.246094 C 141.589844 224.394531 140.589844 222.628906 139.371094 222.214844 C 138.859375 222.042969 138.351562 222.113281 137.910156 222.425781 C 136.859375 223.164062 137.089844 225.582031 137.390625 227.789062 C 137.414062 227.964844 137.433594 228.117188 137.449219 228.238281 C 137.566406 229.222656 137.765625 230.359375 138.335938 231.367188 C 138.789062 232.167969 139.4375 232.628906 140.101562 232.628906 C 140.15625 232.628906 140.214844 232.628906 140.269531 232.617188 Z M 139.597656 195.574219 C 140.128906 195.644531 140.550781 195.914062 140.882812 196.398438 C 141.761719 197.683594 141.730469 200.074219 141.433594 201.289062 C 141.269531 201.96875 140.757812 203.097656 139.898438 203.054688 C 139.507812 203.03125 139.113281 202.726562 138.886719 202.277344 C 138.660156 201.828125 138.597656 201.296875 138.550781 200.75 C 138.539062 200.589844 138.515625 200.398438 138.492188 200.175781 C 138.363281 198.996094 138.089844 196.53125 138.851562 195.78125 C 139 195.632812 139.183594 195.5625 139.421875 195.5625 C 139.476562 195.5625 139.535156 195.566406 139.597656 195.574219 Z M 142.109375 201.457031 C 142.449219 200.082031 142.472656 197.480469 141.457031 196.003906 C 141.015625 195.355469 140.417969 194.976562 139.6875 194.882812 C 139.148438 194.8125 138.703125 194.949219 138.363281 195.28125 C 137.355469 196.265625 137.632812 198.761719 137.800781 200.253906 C 137.824219 200.46875 137.84375 200.65625 137.855469 200.804688 C 137.910156 201.429688 137.980469 202.03125 138.261719 202.585938 C 138.601562 203.269531 139.210938 203.714844 139.859375 203.75 C 139.890625 203.75 139.925781 203.753906 139.957031 203.753906 C 141.128906 203.753906 141.847656 202.527344 142.109375 201.457031 Z M 138.585938 165.464844 C 138.972656 165.132812 139.425781 165.050781 139.964844 165.210938 C 140.492188 165.371094 140.828125 165.761719 140.984375 166.402344 C 141.464844 168.351562 140.144531 171.640625 139.273438 172.496094 C 139.03125 172.730469 138.570312 173.109375 138.121094 173.015625 C 137.484375 172.886719 137.277344 171.933594 137.21875 171.53125 C 137.03125 170.230469 137.265625 166.597656 138.585938 165.464844 Z M 139.761719 172.996094 C 140.84375 171.9375 142.179688 168.339844 141.664062 166.234375 C 141.449219 165.355469 140.933594 164.773438 140.167969 164.542969 C 139.402344 164.308594 138.695312 164.445312 138.128906 164.933594 C 136.414062 166.414062 136.382812 170.628906 136.527344 171.628906 C 136.695312 172.789062 137.226562 173.546875 137.980469 173.699219 C 138.074219 173.71875 138.171875 173.726562 138.265625 173.726562 C 138.757812 173.726562 139.265625 173.480469 139.761719 172.996094 Z M 143.789062 140.695312 C 143.6875 139.410156 143.964844 136.53125 145.074219 135.703125 C 145.414062 135.449219 145.8125 135.414062 146.296875 135.597656 C 146.753906 135.773438 147.097656 136.144531 147.3125 136.699219 C 147.949219 138.351562 147.335938 141.019531 146.808594 142.050781 C 146.515625 142.625 146.199219 142.96875 145.839844 143.09375 C 145.289062 143.28125 144.679688 142.949219 144.355469 142.519531 C 144.035156 142.097656 143.855469 141.515625 143.789062 140.695312 Z M 146.066406 143.753906 C 146.605469 143.566406 147.054688 143.113281 147.433594 142.367188 C 148.085938 141.082031 148.652344 138.234375 147.960938 136.449219 C 147.671875 135.699219 147.199219 135.195312 146.546875 134.945312 C 145.839844 134.679688 145.1875 134.746094 144.65625 135.144531 C 143.238281 136.203125 142.988281 139.4375 143.09375 140.75 C 143.140625 141.355469 143.265625 142.238281 143.796875 142.941406 C 144.230469 143.515625 144.882812 143.84375 145.515625 143.84375 C 145.703125 143.84375 145.886719 143.816406 146.066406 143.753906 Z M 261.03125 196.945312 L 260.804688 196.285156 C 257.808594 197.316406 255.160156 199.148438 253.144531 201.589844 L 253.683594 202.03125 C 255.617188 199.691406 258.160156 197.933594 261.03125 196.945312 Z M 230.195312 188.359375 C 229.242188 182.363281 226.964844 171.3125 226.941406 171.199219 L 226.257812 171.339844 C 226.28125 171.453125 228.554688 182.484375 229.503906 188.46875 Z M 121.800781 171.320312 L 121.109375 171.21875 C 121.085938 171.359375 118.980469 185.304688 118.480469 190.703125 L 119.175781 190.765625 C 119.671875 185.386719 121.78125 171.464844 121.800781 171.320312 Z M 176.59375 77.515625 C 176.777344 77.429688 176.957031 77.34375 177.117188 77.238281 C 177.609375 76.910156 177.921875 76.328125 177.957031 75.679688 C 177.988281 75.027344 177.730469 74.414062 177.273438 74.042969 C 176.980469 73.804688 176.644531 73.671875 176.320312 73.539062 C 176.15625 73.476562 175.992188 73.410156 175.839844 73.328125 C 174.894531 72.839844 174.328125 71.679688 174.515625 70.636719 L 173.828125 70.511719 C 173.582031 71.867188 174.289062 73.3125 175.515625 73.945312 C 175.695312 74.039062 175.875 74.113281 176.058594 74.1875 C 176.347656 74.304688 176.621094 74.414062 176.835938 74.585938 C 177.121094 74.820312 177.277344 75.214844 177.257812 75.644531 C 177.238281 76.074219 177.039062 76.449219 176.730469 76.65625 C 176.597656 76.742188 176.449219 76.808594 176.300781 76.882812 C 175.914062 77.058594 175.476562 77.261719 175.277344 77.730469 L 175.917969 78.003906 C 176.015625 77.785156 176.28125 77.660156 176.59375 77.515625 Z M 135.636719 294.164062 C 135.359375 288.167969 135.058594 282.195312 134.738281 275.871094 C 133.140625 244.476562 131.492188 212.019531 133.996094 182.03125 C 135.273438 166.734375 138.183594 149.542969 141.589844 137.167969 C 142.714844 133.089844 145.484375 127.242188 149.597656 124.1875 C 152.332031 122.160156 159.902344 122.101562 167.226562 122.046875 C 173.847656 121.996094 180.09375 121.949219 182.96875 120.5 L 182.652344 119.875 C 179.925781 121.25 173.46875 121.300781 167.222656 121.351562 C 159.785156 121.40625 152.097656 121.464844 149.183594 123.628906 C 144.925781 126.789062 142.070312 132.792969 140.917969 136.980469 C 137.5 149.394531 134.578125 166.636719 133.300781 181.976562 C 130.792969 212.007812 132.441406 244.492188 134.039062 275.90625 C 134.359375 282.230469 134.664062 288.199219 134.9375 294.195312 Z M 236.671875 292.335938 C 236.898438 291.980469 237.132812 291.621094 237.328125 291.230469 C 237.835938 290.203125 238.023438 289.078125 238.195312 287.996094 L 237.507812 287.878906 C 237.339844 288.914062 237.164062 289.984375 236.703125 290.917969 C 236.527344 291.277344 236.304688 291.621094 236.085938 291.953125 L 235.164062 293.382812 L 235.753906 293.761719 Z M 113.445312 294.839844 C 113.332031 294.371094 113.199219 293.871094 113.066406 293.355469 C 112.609375 291.609375 112.09375 289.636719 112.164062 288.085938 L 111.464844 288.054688 C 111.386719 289.710938 111.921875 291.742188 112.390625 293.53125 C 112.523438 294.042969 112.65625 294.539062 112.765625 295 Z M 254.523438 320.550781 C 254.347656 320.929688 254.101562 321.253906 253.710938 321.625 C 253.449219 321.871094 253.039062 322.179688 252.566406 322.222656 C 252.375 322.242188 252.207031 322.203125 252.121094 322.121094 C 251.972656 321.980469 251.984375 321.679688 252.015625 321.457031 C 252.132812 320.671875 252.421875 320.082031 252.796875 319.386719 C 253.457031 319.621094 254.058594 320.027344 254.523438 320.550781 Z M 252.628906 322.917969 C 253.160156 322.867188 253.699219 322.59375 254.191406 322.132812 C 254.726562 321.628906 255.03125 321.1875 255.253906 320.617188 L 255.324219 320.433594 L 255.199219 320.277344 C 254.574219 319.484375 253.691406 318.902344 252.722656 318.632812 L 252.441406 318.582031 L 252.304688 318.828125 C 251.859375 319.652344 251.472656 320.363281 251.328125 321.351562 C 251.242188 321.917969 251.347656 322.347656 251.636719 322.625 C 251.84375 322.820312 252.136719 322.925781 252.46875 322.925781 C 252.523438 322.925781 252.574219 322.921875 252.628906 322.917969 Z M 245.921875 322.328125 C 245.523438 322.863281 245.058594 323.304688 244.539062 323.636719 C 244.34375 323.761719 244.085938 323.914062 243.816406 323.960938 C 243.585938 324.003906 243.359375 323.957031 243.21875 323.839844 C 242.996094 323.652344 242.960938 323.285156 242.960938 323.082031 C 242.957031 322.285156 243.390625 321.433594 243.824219 320.664062 C 244.597656 321.117188 245.304688 321.675781 245.921875 322.328125 Z M 243.9375 324.648438 C 244.332031 324.578125 244.671875 324.382812 244.917969 324.222656 C 245.585938 323.792969 246.175781 323.210938 246.664062 322.496094 L 246.816406 322.269531 L 246.632812 322.066406 C 245.839844 321.179688 244.90625 320.441406 243.855469 319.882812 L 243.53125 319.765625 L 243.359375 320.0625 C 242.871094 320.929688 242.253906 322.011719 242.261719 323.085938 C 242.265625 323.652344 242.441406 324.097656 242.769531 324.375 C 243.003906 324.570312 243.3125 324.675781 243.648438 324.675781 C 243.742188 324.675781 243.839844 324.664062 243.9375 324.648438 Z M 233.242188 312.519531 C 233.179688 312.621094 233.125 312.722656 233.066406 312.824219 C 232.726562 313.402344 232.410156 313.953125 231.96875 314.457031 C 231.722656 314.738281 231.449219 315.027344 231.117188 315.1875 C 230.800781 315.339844 230.457031 315.347656 230.226562 315.210938 C 230.011719 315.082031 229.859375 314.820312 229.820312 314.503906 C 229.777344 314.167969 229.847656 313.804688 229.929688 313.492188 C 230.183594 312.515625 230.460938 311.746094 230.78125 311.152344 C 231.664062 311.496094 232.488281 311.953125 233.242188 312.519531 Z M 231.421875 315.816406 C 231.867188 315.601562 232.203125 315.253906 232.5 314.914062 C 232.980469 314.359375 233.316406 313.78125 233.671875 313.171875 C 233.777344 312.988281 233.886719 312.804688 233.996094 312.617188 L 234.15625 312.355469 L 233.917969 312.160156 C 232.964844 311.398438 231.894531 310.800781 230.746094 310.394531 L 230.476562 310.292969 L 230.328125 310.539062 C 229.910156 311.222656 229.558594 312.132812 229.253906 313.320312 C 229.15625 313.695312 229.066406 314.144531 229.125 314.59375 C 229.195312 315.121094 229.472656 315.574219 229.867188 315.808594 C 230.085938 315.941406 230.347656 316.003906 230.617188 316.003906 C 230.882812 316.003906 231.160156 315.941406 231.421875 315.816406 Z M 238.269531 320.332031 C 237.527344 321.519531 236.414062 322.414062 235.117188 322.867188 C 234.925781 322.9375 234.683594 323.003906 234.523438 322.929688 C 234.304688 322.828125 234.238281 322.453125 234.214844 322.296875 C 234.0625 321.074219 234.453125 319.664062 235.296875 318.390625 C 236.449219 318.714844 237.507812 319.410156 238.269531 320.332031 Z M 235.351562 323.527344 C 236.878906 322.992188 238.171875 321.910156 239 320.480469 L 239.113281 320.277344 L 238.976562 320.089844 C 238.0625 318.886719 236.695312 318 235.226562 317.652344 L 234.996094 317.601562 L 234.859375 317.792969 C 233.808594 319.277344 233.335938 320.910156 233.523438 322.386719 C 233.597656 322.976562 233.84375 323.386719 234.230469 323.566406 C 234.378906 323.632812 234.535156 323.660156 234.683594 323.660156 C 234.925781 323.660156 235.15625 323.597656 235.351562 323.527344 Z M 257.886719 305.960938 C 257.335938 304.925781 256.199219 304.722656 255.101562 304.527344 C 254.292969 304.382812 253.453125 304.234375 252.917969 303.742188 C 252.671875 303.515625 252.488281 303.214844 252.296875 302.898438 C 252.195312 302.738281 252.101562 302.582031 251.996094 302.429688 C 251.019531 301.027344 249.214844 300.101562 247.042969 299.894531 C 246.8125 299.871094 246.585938 299.855469 246.355469 299.84375 C 245.808594 299.808594 245.289062 299.777344 244.789062 299.644531 C 243.511719 299.3125 242.425781 298.28125 242.027344 297.023438 L 241.363281 297.234375 C 241.832031 298.714844 243.109375 299.925781 244.613281 300.320312 C 245.179688 300.46875 245.753906 300.503906 246.3125 300.539062 C 246.535156 300.554688 246.753906 300.566406 246.976562 300.589844 C 248.941406 300.777344 250.566406 301.59375 251.421875 302.828125 C 251.519531 302.972656 251.609375 303.117188 251.699219 303.261719 C 251.90625 303.605469 252.125 303.960938 252.441406 304.253906 C 253.128906 304.886719 254.070312 305.050781 254.980469 305.214844 C 256 305.394531 256.875 305.550781 257.269531 306.289062 Z M 240.363281 304.742188 L 239.738281 304.429688 C 237.925781 308.054688 234.167969 315.191406 232.921875 316.261719 L 233.375 316.792969 C 235.042969 315.363281 240.148438 305.175781 240.363281 304.742188 Z M 248.929688 308.867188 L 248.3125 308.539062 C 248.265625 308.628906 243.359375 317.765625 241.246094 320.421875 L 241.792969 320.855469 C 243.945312 318.148438 248.726562 309.246094 248.929688 308.867188 Z M 255.6875 311.175781 L 255.070312 310.84375 C 255.023438 310.929688 250.613281 319.25 249.253906 321.191406 L 249.828125 321.589844 C 251.210938 319.613281 255.503906 311.515625 255.6875 311.175781 Z M 95.6875 319.386719 C 96.0625 320.082031 96.351562 320.671875 96.46875 321.457031 C 96.503906 321.679688 96.511719 321.980469 96.367188 322.117188 C 96.277344 322.203125 96.117188 322.242188 95.921875 322.222656 C 95.453125 322.179688 95.039062 321.871094 94.773438 321.625 C 94.382812 321.253906 94.140625 320.929688 93.964844 320.550781 C 94.429688 320.027344 95.027344 319.621094 95.6875 319.386719 Z M 96.847656 322.621094 C 97.140625 322.347656 97.246094 321.917969 97.160156 321.351562 C 97.011719 320.363281 96.628906 319.648438 96.179688 318.824219 L 95.859375 318.96875 L 96.167969 318.804688 L 96.035156 318.558594 L 95.765625 318.632812 C 94.792969 318.902344 93.914062 319.484375 93.289062 320.277344 L 93.164062 320.433594 L 93.234375 320.617188 C 93.453125 321.1875 93.761719 321.628906 94.296875 322.132812 C 94.796875 322.601562 95.320312 322.867188 95.859375 322.917969 C 95.914062 322.921875 95.964844 322.925781 96.015625 322.925781 C 96.351562 322.925781 96.644531 322.820312 96.847656 322.621094 Z M 104.664062 320.664062 C 105.09375 321.433594 105.53125 322.285156 105.527344 323.082031 C 105.527344 323.285156 105.492188 323.652344 105.265625 323.839844 C 105.128906 323.957031 104.902344 324.003906 104.667969 323.960938 C 104.398438 323.914062 104.144531 323.761719 103.945312 323.636719 C 103.429688 323.304688 102.964844 322.863281 102.5625 322.328125 C 103.183594 321.671875 103.890625 321.117188 104.664062 320.664062 Z M 105.714844 324.375 C 106.046875 324.097656 106.222656 323.652344 106.226562 323.082031 C 106.230469 322.011719 105.621094 320.929688 105.128906 320.0625 L 104.796875 320.1875 L 105.101562 320.015625 L 104.933594 319.71875 L 104.632812 319.882812 C 103.582031 320.441406 102.652344 321.179688 101.855469 322.066406 L 101.671875 322.269531 L 101.828125 322.496094 C 102.316406 323.210938 102.902344 323.792969 103.566406 324.222656 C 103.820312 324.382812 104.152344 324.578125 104.546875 324.648438 C 104.644531 324.664062 104.742188 324.675781 104.839844 324.675781 C 105.175781 324.675781 105.484375 324.570312 105.714844 324.375 Z M 117.707031 311.152344 C 118.023438 311.746094 118.304688 312.515625 118.558594 313.492188 C 118.636719 313.804688 118.714844 314.167969 118.667969 314.503906 C 118.625 314.820312 118.476562 315.082031 118.261719 315.210938 C 117.980469 315.375 117.617188 315.308594 117.371094 315.1875 C 117.039062 315.027344 116.761719 314.738281 116.515625 314.457031 C 116.078125 313.949219 115.757812 313.398438 115.417969 312.816406 C 115.363281 312.71875 115.304688 312.621094 115.246094 312.519531 C 116 311.953125 116.824219 311.496094 117.707031 311.152344 Z M 118.617188 315.808594 C 119.011719 315.578125 119.292969 315.121094 119.359375 314.59375 C 119.417969 314.144531 119.328125 313.695312 119.234375 313.320312 C 118.925781 312.128906 118.578125 311.222656 118.160156 310.539062 L 118.011719 310.292969 L 117.742188 310.394531 C 116.589844 310.800781 115.523438 311.398438 114.570312 312.160156 L 114.332031 312.355469 L 114.488281 312.617188 C 114.601562 312.800781 114.710938 312.988281 114.816406 313.167969 C 115.171875 313.78125 115.507812 314.359375 115.988281 314.914062 C 116.285156 315.253906 116.621094 315.601562 117.066406 315.816406 C 117.324219 315.941406 117.601562 316.003906 117.871094 316.003906 C 118.140625 316.003906 118.398438 315.941406 118.617188 315.808594 Z M 113.191406 318.390625 C 114.03125 319.664062 114.425781 321.074219 114.269531 322.296875 C 114.246094 322.496094 114.171875 322.835938 113.964844 322.929688 C 113.804688 323.003906 113.5625 322.9375 113.371094 322.867188 C 112.070312 322.414062 110.960938 321.519531 110.214844 320.332031 C 110.976562 319.410156 112.039062 318.714844 113.191406 318.390625 Z M 114.257812 323.566406 C 114.644531 323.386719 114.886719 322.980469 114.964844 322.386719 C 115.152344 320.910156 114.675781 319.277344 113.625 317.792969 L 113.488281 317.601562 L 113.261719 317.652344 C 111.792969 318 110.425781 318.886719 109.515625 320.089844 L 109.375 320.277344 L 109.488281 320.480469 C 110.3125 321.910156 111.609375 322.992188 113.136719 323.527344 C 113.332031 323.597656 113.5625 323.660156 113.800781 323.660156 C 113.953125 323.660156 114.105469 323.632812 114.257812 323.566406 Z M 93.507812 305.214844 C 94.417969 305.050781 95.355469 304.886719 96.042969 304.253906 C 96.359375 303.960938 96.578125 303.605469 96.789062 303.261719 C 96.878906 303.117188 96.96875 302.972656 97.0625 302.828125 C 97.925781 301.59375 99.542969 300.777344 101.511719 300.589844 C 101.730469 300.566406 101.953125 300.554688 102.175781 300.539062 C 102.730469 300.503906 103.308594 300.46875 103.871094 300.320312 C 105.378906 299.925781 106.652344 298.714844 107.125 297.234375 L 106.457031 297.023438 C 106.058594 298.28125 104.976562 299.3125 103.695312 299.644531 C 103.199219 299.777344 102.679688 299.808594 102.132812 299.84375 C 101.902344 299.855469 101.671875 299.871094 101.445312 299.894531 C 99.273438 300.101562 97.46875 301.027344 96.492188 302.429688 C 96.386719 302.582031 96.289062 302.742188 96.191406 302.898438 C 96 303.214844 95.816406 303.515625 95.570312 303.742188 C 95.035156 304.234375 94.195312 304.382812 93.386719 304.527344 C 92.289062 304.722656 91.152344 304.925781 90.601562 305.960938 L 91.21875 306.289062 C 91.609375 305.550781 92.488281 305.394531 93.507812 305.214844 Z M 115.566406 316.261719 C 114.320312 315.191406 110.558594 308.054688 108.746094 304.429688 L 108.121094 304.742188 C 108.335938 305.175781 113.445312 315.363281 115.109375 316.792969 Z M 107.242188 320.421875 C 105.125 317.765625 100.222656 308.628906 100.171875 308.539062 L 99.558594 308.867188 C 99.761719 309.246094 104.542969 318.148438 106.695312 320.855469 Z M 99.234375 321.191406 C 97.871094 319.25 93.460938 310.929688 93.417969 310.84375 L 92.800781 311.175781 C 92.984375 311.515625 97.273438 319.613281 98.660156 321.589844 Z M 181.589844 104.386719 L 181.335938 103.734375 C 170.386719 108.035156 162.246094 100.800781 162.167969 100.726562 L 161.695312 101.242188 C 161.761719 101.304688 166.804688 105.796875 174.324219 105.796875 C 176.550781 105.796875 178.992188 105.40625 181.589844 104.386719 Z M 150.722656 80.957031 C 149.886719 79.613281 149.71875 77.78125 149.714844 77.761719 L 149.019531 77.820312 C 149.027344 77.902344 149.203125 79.835938 150.128906 81.324219 Z M 148.613281 72.5 C 148.195312 71.285156 147.179688 70.285156 145.957031 69.886719 L 145.742188 70.554688 C 146.757812 70.882812 147.605469 71.714844 147.949219 72.726562 Z M 178.539062 89.265625 C 180.804688 88.46875 182.546875 86.804688 183.191406 84.828125 L 182.53125 84.609375 C 181.949219 86.386719 180.371094 87.882812 178.308594 88.609375 C 176.613281 89.207031 174.617188 89.328125 172.199219 88.984375 C 170.003906 88.671875 167.144531 87.816406 166.003906 85.507812 L 165.378906 85.816406 C 166.65625 88.398438 169.738281 89.339844 172.101562 89.675781 C 173.023438 89.808594 173.886719 89.871094 174.699219 89.871094 C 176.125 89.871094 177.394531 89.671875 178.539062 89.265625 Z M 186.714844 72.316406 C 184.386719 70.644531 183.207031 67.65625 183.988281 64.722656 C 184.082031 64.371094 184.207031 64.035156 184.351562 63.710938 C 186.675781 62.863281 189.777344 62.71875 193.910156 64.0625 C 193.910156 64.0625 192.289062 70.527344 186.714844 72.316406"/></g></svg>